<?xml version="1.0" encoding="utf-8"?>
<!-- Generator: Adobe Illustrator 16.0.0, SVG Export Plug-In . SVG Version: 6.00 Build 0)  -->
<!DOCTYPE svg PUBLIC "-//W3C//DTD SVG 1.1//EN" "http://www.w3.org/Graphics/SVG/1.1/DTD/svg11.dtd">
<svg version="1.1" xmlns="http://www.w3.org/2000/svg" xmlns:xlink="http://www.w3.org/1999/xlink" x="0px" y="0px"
	 width="1903.762px" height="770.417px" viewBox="0 0 1903.762 770.417" enable-background="new 0 0 1903.762 770.417"
	 xml:space="preserve">
<g id="Back">
	<path fill="#FFFFFF" d="M2122.137,170.469C2052.514,56.906,1925.164,8.314,1837.695,61.94
		c-22.371,13.715-39.953,32.797-52.59,55.489c-34.479-17.197-72.395-23.301-109.914-15.195c-9.43,2.037-18.506,4.913-27.203,8.535
		c-57.69-64.454-142.311-105.153-236.633-105.153c-131.209,0-243.649,78.741-290.916,190.659
		c-15.457-3.449-31.545-5.277-48.066-5.277c-28.492,0-55.688,5.428-80.589,15.267c-38.778-56.269-104.434-93.263-178.898-93.263
		c-48.423,0-93.12,15.643-129.124,42.057C636.887,66.289,542.375,5.618,433.405,5.618c-155.617,0-281.771,123.716-281.771,276.328
		c0,19.222,2.006,37.984,5.815,56.1C40.346,340.379-53.854,434.194-53.854,549.595c0,59.261,24.85,112.819,64.874,151.234V863.55
		h1924.404V479.442c53.126,21.874,109.11,21.521,154.402-6.248C2177.295,419.568,2191.761,284.034,2122.137,170.469z"/>
	<path fill-opacity="0.4" d="M2122.137,170.469C2052.514,56.906,1925.164,8.314,1837.695,61.94
		c-22.371,13.715-39.953,32.797-52.59,55.489c-34.479-17.197-72.395-23.301-109.914-15.195c-9.43,2.037-18.506,4.913-27.203,8.535
		c-57.69-64.454-142.311-105.153-236.633-105.153c-131.209,0-243.649,78.741-290.916,190.659
		c-15.457-3.449-31.545-5.277-48.066-5.277c-28.492,0-55.688,5.428-80.589,15.267c-38.778-56.269-104.434-93.263-178.898-93.263
		c-48.423,0-93.12,15.643-129.124,42.057C636.887,66.289,542.375,5.618,433.405,5.618c-155.617,0-281.771,123.716-281.771,276.328
		c0,19.222,2.006,37.984,5.815,56.1C40.346,340.379-53.854,434.194-53.854,549.595c0,36.2,9.287,70.265,25.627,100.057
		c-9.115-23.198-14.128-48.395-14.128-74.745c0-113.453,92.609-205.684,207.735-207.977c-3.745-17.81-5.717-36.256-5.717-55.153
		c0-150.035,124.021-271.661,277.01-271.661c107.129,0,200.045,59.646,246.128,146.918c35.396-25.968,79.338-41.347,126.943-41.347
		c73.207,0,137.752,36.37,175.876,91.688c24.479-9.673,51.217-15.009,79.228-15.009c16.243,0,32.06,1.797,47.254,5.188
		c46.47-110.027,157.011-187.438,286.005-187.438c92.729,0,175.919,40.011,232.635,103.377c8.551-3.561,17.473-6.389,26.743-8.391
		c36.887-7.97,74.162-1.969,108.059,14.938c12.423-22.308,29.708-41.068,51.701-54.551c85.992-52.721,211.191-4.951,279.638,106.694
		c55.248,90.115,56.624,194.292,9.888,258.848C2178.87,401.075,2186.987,276.248,2122.137,170.469z"/>
</g>
<g id="FrontCloud">
	<path fill="#FFFFFF" d="M1962.992,678.541c0.367-91.65-69.754-166.292-156.617-166.716
		c-64.813-0.315-120.629,40.778-144.949,99.729c-14.883-10.52-31.381-17.496-49.121-20.146
		c-66.037-9.861-130.039,42.986-163.422,126.115c-36.301-24.862-82.412-39.75-132.611-39.75c-27.754,0-54.256,4.555-78.545,12.822
		c-22.703-90.068-109.377-157.121-212.846-157.121c-21.176,0-41.641,2.818-61.004,8.056
		c-24.855-92.341-106.171-160.054-202.658-160.054c-44.377,0-85.538,14.335-119.481,38.791
		c-45.563-61.628-109.801-100.021-180.982-100.021c-117.546,0-216.144,104.703-242.994,245.842
		c-9.758-1.387-19.693-2.111-29.776-2.111c-133.564,0-241.84,125.248-241.84,279.75c0,57.645,15.078,111.211,40.913,155.727v175.023
		h1947.275V773.335C1952.258,746.523,1962.85,713.847,1962.992,678.541z"/>
	<path fill-opacity="0.3" d="M1806.375,511.825c-64.813-0.315-120.629,40.778-144.949,99.729
		c-14.883-10.52-31.381-17.496-49.121-20.146c-66.037-9.861-130.039,42.986-163.422,126.115
		c-36.301-24.862-82.412-39.75-132.611-39.75c-27.754,0-54.256,4.555-78.545,12.822c-22.703-90.068-109.377-157.121-212.846-157.121
		c-21.176,0-41.641,2.818-61.004,8.056c-24.855-92.341-106.171-160.054-202.658-160.054c-44.377,0-85.538,14.335-119.481,38.791
		c-45.563-61.628-109.801-100.021-180.982-100.021c-117.546,0-216.144,104.703-242.994,245.842
		c-9.758-1.387-19.693-2.111-29.776-2.111c-133.564,0-241.84,125.248-241.84,279.75c0,57.645,15.078,111.211,40.913,155.727v175.023
		h1947.275V773.335c17.924-26.813,28.516-59.488,28.658-94.795C1963.359,586.89,1893.238,512.249,1806.375,511.825z
		 M1932.348,774.763v380.713H-5.627V989.367c-25.71-42.25-40.717-93.09-40.717-147.799c0-146.635,107.759-265.506,240.686-265.506
		c10.034,0,19.922,0.689,29.633,2.006c26.721-133.951,124.849-233.323,241.834-233.323c70.841,0,134.771,36.438,180.118,94.927
		c33.781-23.21,74.745-36.815,118.911-36.815c96.026,0,176.955,64.265,201.689,151.904c19.272-4.971,39.639-7.646,60.712-7.646
		c102.973,0,189.235,63.64,211.829,149.121c24.173-7.847,50.549-12.17,78.17-12.17c49.96,0,95.851,14.13,131.979,37.728
		c33.222-78.896,96.921-129.053,162.642-119.693c17.656,2.514,34.076,9.137,48.887,19.119
		c24.206-55.951,79.754-94.951,144.256-94.651c86.45,0.401,156.236,71.243,155.868,158.228
		C1960.729,718.304,1950.188,749.316,1932.348,774.763z"/>
</g>
</svg>
