<?xml version="1.0" encoding="utf-8"?>
<!-- Generator: Adobe Illustrator 16.0.0, SVG Export Plug-In . SVG Version: 6.00 Build 0)  -->
<!DOCTYPE svg PUBLIC "-//W3C//DTD SVG 1.1//EN" "http://www.w3.org/Graphics/SVG/1.1/DTD/svg11.dtd">
<svg version="1.1" id="Layer_1" xmlns="http://www.w3.org/2000/svg" xmlns:xlink="http://www.w3.org/1999/xlink" x="0px" y="0px"
	 width="300px" height="220px" viewBox="0 0 300 220" enable-background="new 0 0 300 220" xml:space="preserve">
<circle fill="#589FD6" stroke="#589FD6" stroke-miterlimit="10" cx="154.582" cy="39.483" r="37.33"/>
<circle fill="#589FD6" stroke="#589FD6" stroke-width="3" stroke-miterlimit="10" cx="56.801" cy="120.294" r="53.59"/>
<circle fill="#589FD6" stroke="#589FD6" stroke-miterlimit="10" cx="253.648" cy="76.716" r="44.293"/>
<circle fill="#589FD6" stroke="#589FD6" stroke-miterlimit="10" cx="176.375" cy="156.557" r="61.291"/>
<g>
	<g>
		<defs>
			<circle id="SVGID_1_" cx="56.801" cy="120.295" r="52.015"/>
		</defs>
		<clipPath id="SVGID_2_">
			<use xlink:href="#SVGID_1_"  overflow="visible"/>
		</clipPath>
		<g clip-path="url(#SVGID_2_)">
			<g id="XMLID_1656_">
				<rect id="XMLID_782_" x="-25.148" y="36.911" fill="#21254F" width="233.962" height="158.693"/>
				<rect id="XMLID_781_" x="-5.106" y="69.821" fill="#384979" width="193.88" height="0.29"/>
				<rect id="XMLID_780_" x="-5.106" y="79.916" fill="#384979" width="193.88" height="0.289"/>
				<rect id="XMLID_779_" x="-5.106" y="90.01" fill="#384979" width="193.88" height="0.289"/>
				<rect id="XMLID_778_" x="-5.106" y="100.105" fill="#384979" width="193.88" height="0.289"/>
				<rect id="XMLID_777_" x="-5.106" y="110.2" fill="#384979" width="193.88" height="0.29"/>
				<rect id="XMLID_776_" x="-5.106" y="120.294" fill="#384979" width="193.88" height="0.289"/>
				<rect id="XMLID_775_" x="-5.106" y="130.389" fill="#384979" width="193.88" height="0.291"/>
				<rect id="XMLID_774_" x="-5.106" y="140.484" fill="#384979" width="193.88" height="0.289"/>
				<rect id="XMLID_773_" x="-5.106" y="150.58" fill="#384979" width="193.88" height="0.287"/>
				<rect id="XMLID_772_" x="-5.106" y="160.676" fill="#384979" width="193.88" height="0.287"/>
				<rect id="XMLID_771_" x="-5.106" y="170.77" fill="#384979" width="193.88" height="0.289"/>
				<rect id="XMLID_770_" x="0.836" y="62.306" fill="#384979" width="0.289" height="116.269"/>
				<rect id="XMLID_769_" x="10.931" y="62.306" fill="#384979" width="0.289" height="116.269"/>
				<rect id="XMLID_768_" x="21.026" y="62.306" fill="#384979" width="0.289" height="116.269"/>
				<rect id="XMLID_767_" x="31.121" y="62.306" fill="#384979" width="0.289" height="116.269"/>
				<rect id="XMLID_766_" x="41.215" y="62.306" fill="#384979" width="0.289" height="116.269"/>
				<rect id="XMLID_765_" x="51.31" y="62.306" fill="#384979" width="0.29" height="116.269"/>
				<rect id="XMLID_764_" x="61.405" y="62.306" fill="#384979" width="0.289" height="116.269"/>
				<rect id="XMLID_763_" x="71.5" y="62.306" fill="#384979" width="0.289" height="116.269"/>
				<rect id="XMLID_762_" x="81.594" y="62.306" fill="#384979" width="0.29" height="116.269"/>
				<rect id="XMLID_761_" x="91.689" y="62.306" fill="#384979" width="0.29" height="116.269"/>
				<rect id="XMLID_760_" x="101.783" y="62.306" fill="#384979" width="0.29" height="116.269"/>
				<rect id="XMLID_759_" x="111.878" y="62.306" fill="#384979" width="0.29" height="116.269"/>
				<rect id="XMLID_758_" x="121.972" y="62.306" fill="#384979" width="0.291" height="116.269"/>
				<rect id="XMLID_757_" x="132.067" y="62.306" fill="#384979" width="0.289" height="116.269"/>
				<rect id="XMLID_756_" x="142.162" y="62.306" fill="#384979" width="0.29" height="116.269"/>
				<rect id="XMLID_755_" x="152.256" y="62.306" fill="#384979" width="0.291" height="116.269"/>
				<rect id="XMLID_754_" x="162.352" y="62.306" fill="#384979" width="0.289" height="116.269"/>
				<rect id="XMLID_753_" x="172.445" y="62.306" fill="#384979" width="0.289" height="116.269"/>
				<rect id="XMLID_752_" x="182.539" y="62.306" fill="#384979" width="0.291" height="116.269"/>
				<polyline id="XMLID_705_" fill="none" stroke="#BCE6F8" stroke-width="2.8346" stroke-miterlimit="22.9256" points="
					1.125,130.389 21.315,140.484 41.504,110.2 61.694,100.105 81.883,105.824 102.073,91.863 122.262,84.823 142.451,106.548 
					162.352,95.405 182.83,115.473 				"/>
				<path id="XMLID_1721_" fill="#82D4F4" d="M0.836,128.828c1.023,0,1.852,0.828,1.852,1.852s-0.829,1.854-1.852,1.854
					s-1.853-0.83-1.853-1.854S-0.187,128.828,0.836,128.828L0.836,128.828z M0.836,127.99c1.484,0,2.688,1.203,2.688,2.689
					c0,1.484-1.204,2.689-2.688,2.689c-1.486,0-2.689-1.205-2.689-2.689C-1.853,129.193-0.649,127.99,0.836,127.99z"/>
				<path id="XMLID_1718_" fill="#82D4F4" d="M21.315,138.633c1.024,0,1.853,0.828,1.853,1.852s-0.829,1.852-1.853,1.852
					c-1.022,0-1.852-0.828-1.852-1.852S20.292,138.633,21.315,138.633L21.315,138.633z M21.315,137.795
					c1.485,0,2.69,1.205,2.69,2.689s-1.205,2.689-2.69,2.689c-1.485,0-2.688-1.205-2.688-2.689S19.83,137.795,21.315,137.795z"/>
				<path id="XMLID_1715_" fill="#82D4F4" d="M41.215,108.637c1.022,0,1.852,0.828,1.852,1.853c0,1.022-0.83,1.852-1.852,1.852
					c-1.024,0-1.852-0.829-1.852-1.852C39.363,109.465,40.192,108.637,41.215,108.637L41.215,108.637z M41.215,107.8
					c1.485,0,2.689,1.203,2.689,2.689c0,1.485-1.204,2.688-2.689,2.688c-1.486,0-2.69-1.203-2.69-2.688
					C38.525,109.003,39.73,107.8,41.215,107.8z"/>
				<path id="XMLID_1712_" fill="#82D4F4" d="M61.694,98.253c1.023,0,1.853,0.829,1.853,1.853c0,1.023-0.829,1.852-1.853,1.852
					c-1.023,0-1.852-0.829-1.852-1.852C59.842,99.082,60.671,98.253,61.694,98.253L61.694,98.253z M61.694,97.416
					c1.485,0,2.689,1.204,2.689,2.689c0,1.485-1.204,2.689-2.689,2.689c-1.485,0-2.688-1.204-2.688-2.689
					C59.005,98.619,60.209,97.416,61.694,97.416z"/>
				<path id="XMLID_1709_" fill="#82D4F4" d="M81.883,103.973c1.022,0,1.853,0.829,1.853,1.851c0,1.023-0.83,1.853-1.853,1.853
					c-1.023,0-1.852-0.83-1.852-1.853C80.031,104.802,80.86,103.973,81.883,103.973L81.883,103.973z M81.883,103.135
					c1.485,0,2.689,1.205,2.689,2.689c0,1.485-1.204,2.688-2.689,2.688c-1.485,0-2.689-1.204-2.689-2.688
					S80.398,103.135,81.883,103.135z"/>
				<path id="XMLID_1706_" fill="#82D4F4" d="M102.073,90.01c1.022,0,1.852,0.829,1.852,1.853c0,1.022-0.83,1.853-1.852,1.853
					c-1.023,0-1.853-0.83-1.853-1.853C100.22,90.839,101.05,90.01,102.073,90.01L102.073,90.01z M102.073,89.173
					c1.485,0,2.689,1.205,2.689,2.689s-1.205,2.689-2.689,2.689c-1.486,0-2.689-1.205-2.689-2.689S100.587,89.173,102.073,89.173z"
					/>
				<path id="XMLID_1703_" fill="#82D4F4" d="M122.262,82.969c1.023,0,1.852,0.83,1.852,1.854c0,1.022-0.829,1.852-1.852,1.852
					c-1.024,0-1.853-0.83-1.853-1.852C120.409,83.799,121.238,82.969,122.262,82.969L122.262,82.969z M122.262,82.133
					c1.485,0,2.689,1.205,2.689,2.69c0,1.485-1.204,2.688-2.689,2.688c-1.486,0-2.689-1.204-2.689-2.688
					C119.573,83.337,120.776,82.133,122.262,82.133z"/>
				<path id="XMLID_1700_" fill="#82D4F4" d="M142.451,104.696c1.023,0,1.852,0.828,1.852,1.853c0,1.023-0.828,1.852-1.852,1.852
					c-1.022,0-1.853-0.828-1.853-1.852C140.599,105.524,141.429,104.696,142.451,104.696L142.451,104.696z M142.451,103.858
					c1.484,0,2.689,1.205,2.689,2.689c0,1.486-1.205,2.689-2.689,2.689c-1.486,0-2.689-1.203-2.689-2.689
					C139.762,105.063,140.965,103.858,142.451,103.858z"/>
				<path id="XMLID_1697_" fill="#82D4F4" d="M162.352,93.553c1.023,0,1.852,0.83,1.852,1.853c0,1.022-0.828,1.852-1.852,1.852
					s-1.852-0.83-1.852-1.852C160.5,94.382,161.328,93.553,162.352,93.553L162.352,93.553z M162.352,92.716
					c1.484,0,2.689,1.204,2.689,2.689c0,1.485-1.205,2.688-2.689,2.688c-1.486,0-2.688-1.204-2.688-2.688
					C159.664,93.92,160.865,92.716,162.352,92.716z"/>
				<path id="XMLID_1694_" fill="#82D4F4" d="M182.83,113.621c1.023,0,1.852,0.829,1.852,1.853c0,1.021-0.828,1.851-1.852,1.851
					s-1.852-0.829-1.852-1.851C180.979,114.45,181.807,113.621,182.83,113.621L182.83,113.621z M182.83,112.784
					c1.484,0,2.689,1.204,2.689,2.689c0,1.483-1.205,2.688-2.689,2.688c-1.486,0-2.689-1.205-2.689-2.688
					C180.141,113.988,181.344,112.784,182.83,112.784z"/>
				<path id="XMLID_1691_" fill="#EF7D99" d="M182.83,104.082c-1.023,0-1.852-0.83-1.852-1.854c0-1.021,0.828-1.851,1.852-1.851
					s1.852,0.829,1.852,1.851C184.682,103.251,183.854,104.082,182.83,104.082L182.83,104.082z M182.83,104.917
					c-1.486,0-2.689-1.204-2.689-2.689c0-1.483,1.203-2.688,2.689-2.688c1.484,0,2.689,1.205,2.689,2.688
					C185.52,103.714,184.314,104.917,182.83,104.917z"/>
				<path id="XMLID_1686_" fill="#EF7D99" d="M162.352,82.058c-1.023,0-1.852-0.83-1.852-1.853c0-1.023,0.828-1.853,1.852-1.853
					s1.852,0.829,1.852,1.853C164.203,81.228,163.375,82.058,162.352,82.058L162.352,82.058z M162.352,82.894
					c-1.486,0-2.688-1.204-2.688-2.689c0-1.484,1.201-2.688,2.688-2.688c1.484,0,2.689,1.204,2.689,2.688
					C165.041,81.69,163.836,82.894,162.352,82.894z"/>
				<path id="XMLID_1683_" fill="#EF7D99" d="M142.451,98.854c-1.022,0-1.853-0.829-1.853-1.852c0-1.023,0.83-1.853,1.853-1.853
					c1.023,0,1.852,0.829,1.852,1.853C144.303,98.025,143.475,98.854,142.451,98.854L142.451,98.854z M142.451,99.692
					c-1.486,0-2.689-1.205-2.689-2.689c0-1.486,1.204-2.688,2.689-2.688c1.484,0,2.689,1.203,2.689,2.688
					C145.141,98.487,143.936,99.692,142.451,99.692z"/>
				<path id="XMLID_1680_" fill="#EF7D99" d="M121.972,142.336c-1.022,0-1.852-0.828-1.852-1.852s0.829-1.852,1.852-1.852
					c1.024,0,1.853,0.828,1.853,1.852S122.996,142.336,121.972,142.336L121.972,142.336z M121.972,143.174
					c-1.485,0-2.689-1.205-2.689-2.689s1.204-2.689,2.689-2.689c1.486,0,2.69,1.205,2.69,2.689S123.458,143.174,121.972,143.174z"/>
				<path id="XMLID_1677_" fill="#EF7D99" d="M101.783,128.936c-1.023,0-1.852-0.828-1.852-1.852s0.829-1.854,1.852-1.854
					s1.852,0.831,1.852,1.854S102.806,128.936,101.783,128.936L101.783,128.936z M101.783,129.773c-1.485,0-2.689-1.205-2.689-2.689
					c0-1.486,1.204-2.691,2.689-2.691c1.486,0,2.689,1.205,2.689,2.691C104.473,128.568,103.269,129.773,101.783,129.773z"/>
				<path id="XMLID_1674_" fill="#EF7D99" d="M81.594,96.842c-1.022,0-1.853-0.831-1.853-1.852c0-1.023,0.831-1.853,1.853-1.853
					s1.852,0.83,1.852,1.853C83.446,96.012,82.616,96.842,81.594,96.842L81.594,96.842z M81.594,97.679
					c-1.486,0-2.69-1.204-2.69-2.688c0-1.486,1.205-2.689,2.69-2.689s2.688,1.204,2.688,2.689
					C84.282,96.475,83.079,97.679,81.594,97.679z"/>
				<path id="XMLID_1671_" fill="#EF7D99" d="M61.405,115.458c-1.023,0-1.853-0.829-1.853-1.853c0-1.022,0.83-1.852,1.853-1.852
					c1.022,0,1.853,0.829,1.853,1.852C63.257,114.628,62.427,115.458,61.405,115.458L61.405,115.458z M61.405,116.294
					c-1.486,0-2.69-1.203-2.69-2.689c0-1.484,1.205-2.688,2.69-2.688c1.485,0,2.689,1.204,2.689,2.688
					C64.094,115.091,62.889,116.294,61.405,116.294z"/>
				<path id="XMLID_1668_" fill="#EF7D99" d="M41.215,128.213c-1.024,0-1.852-0.83-1.852-1.854c0-1.022,0.828-1.851,1.852-1.851
					c1.022,0,1.852,0.829,1.852,1.851C43.067,127.383,42.238,128.213,41.215,128.213L41.215,128.213z M41.215,129.051
					c-1.486,0-2.69-1.205-2.69-2.691c0-1.486,1.204-2.688,2.69-2.688c1.485,0,2.689,1.203,2.689,2.688
					C43.904,127.846,42.701,129.051,41.215,129.051z"/>
				<path id="XMLID_1665_" fill="#EF7D99" d="M21.315,129.799c-1.022,0-1.852-0.83-1.852-1.854c0-1.021,0.83-1.854,1.852-1.854
					c1.024,0,1.853,0.832,1.853,1.854C23.167,128.969,22.338,129.799,21.315,129.799L21.315,129.799z M21.315,130.635
					c-1.485,0-2.688-1.203-2.688-2.689c0-1.484,1.204-2.689,2.688-2.689c1.485,0,2.689,1.205,2.689,2.689
					C24.004,129.432,22.8,130.635,21.315,130.635z"/>
				<path id="XMLID_1662_" fill="#EF7D99" d="M0.836,148.412c-1.023,0-1.853-0.828-1.853-1.85c0-1.023,0.83-1.854,1.853-1.854
					c1.023,0,1.852,0.83,1.852,1.854C2.688,147.584,1.86,148.412,0.836,148.412L0.836,148.412z M0.836,149.25
					c-1.486,0-2.689-1.203-2.689-2.688c0-1.486,1.204-2.691,2.689-2.691c1.484,0,2.688,1.205,2.688,2.691
					C3.525,148.047,2.321,149.25,0.836,149.25z"/>
				<polyline id="XMLID_664_" fill="none" stroke="#EF7D99" stroke-width="2.8346" stroke-miterlimit="22.9256" points="
					0.836,146.563 21.315,127.945 41.215,126.371 61.405,113.605 81.594,94.99 101.783,127.084 122.262,140.484 142.451,97.003 
					162.352,80.206 182.83,102.228 				"/>
			</g>
		</g>
	</g>
</g>
<g>
	<g>
		<defs>
			<circle id="SVGID_3_" cx="176.375" cy="156.557" r="59.396"/>
		</defs>
		<clipPath id="SVGID_4_">
			<use xlink:href="#SVGID_3_"  overflow="visible"/>
		</clipPath>
		<g id="XMLID_190_" clip-path="url(#SVGID_4_)">
			<rect id="XMLID_377_" x="77.846" y="71.464" fill="#21254F" width="253.888" height="172.21"/>
			<rect id="XMLID_282_" x="99.594" y="107.178" fill="#384979" width="210.393" height="0.313"/>
			<rect id="XMLID_281_" x="99.594" y="118.13" fill="#384979" width="210.393" height="0.315"/>
			<rect id="XMLID_280_" x="99.594" y="129.088" fill="#384979" width="210.393" height="0.313"/>
			<rect id="XMLID_279_" x="99.594" y="140.043" fill="#384979" width="210.393" height="0.313"/>
			<rect id="XMLID_278_" x="99.594" y="150.996" fill="#384979" width="210.393" height="0.314"/>
			<rect id="XMLID_277_" x="99.594" y="161.949" fill="#384979" width="210.393" height="0.316"/>
			<rect id="XMLID_276_" x="99.594" y="172.904" fill="#384979" width="210.393" height="0.314"/>
			<rect id="XMLID_275_" x="99.594" y="183.859" fill="#384979" width="210.393" height="0.314"/>
			<rect id="XMLID_274_" x="99.594" y="194.814" fill="#384979" width="210.393" height="0.314"/>
			<rect id="XMLID_273_" x="99.594" y="205.77" fill="#384979" width="210.393" height="0.314"/>
			<rect id="XMLID_272_" x="99.594" y="216.723" fill="#384979" width="210.393" height="0.314"/>
			<rect id="XMLID_271_" x="106.043" y="99.023" fill="#384979" width="0.314" height="126.168"/>
			<rect id="XMLID_270_" x="116.998" y="99.023" fill="#384979" width="0.314" height="126.168"/>
			<rect id="XMLID_269_" x="127.951" y="99.023" fill="#384979" width="0.315" height="126.168"/>
			<rect id="XMLID_268_" x="138.906" y="99.023" fill="#384979" width="0.315" height="126.168"/>
			<rect id="XMLID_267_" x="149.861" y="99.023" fill="#384979" width="0.315" height="126.168"/>
			<rect id="XMLID_266_" x="160.816" y="99.023" fill="#384979" width="0.314" height="126.168"/>
			<rect id="XMLID_265_" x="171.77" y="99.023" fill="#384979" width="0.314" height="126.168"/>
			<rect id="XMLID_264_" x="182.725" y="99.023" fill="#384979" width="0.314" height="126.168"/>
			<rect id="XMLID_263_" x="193.678" y="99.023" fill="#384979" width="0.316" height="126.168"/>
			<rect id="XMLID_262_" x="204.633" y="99.023" fill="#384979" width="0.314" height="126.168"/>
			<rect id="XMLID_261_" x="215.588" y="99.023" fill="#384979" width="0.314" height="126.168"/>
			<rect id="XMLID_260_" x="226.543" y="99.023" fill="#384979" width="0.314" height="126.168"/>
			<rect id="XMLID_259_" x="237.496" y="99.023" fill="#384979" width="0.314" height="126.168"/>
			<rect id="XMLID_258_" x="248.451" y="99.023" fill="#384979" width="0.313" height="126.168"/>
			<rect id="XMLID_257_" x="259.404" y="99.023" fill="#384979" width="0.314" height="126.168"/>
			<rect id="XMLID_256_" x="270.359" y="99.023" fill="#384979" width="0.314" height="126.168"/>
			<rect id="XMLID_255_" x="281.314" y="99.023" fill="#384979" width="0.314" height="126.168"/>
			<rect id="XMLID_254_" x="292.268" y="99.023" fill="#384979" width="0.314" height="126.168"/>
			<rect id="XMLID_253_" x="303.223" y="99.023" fill="#384979" width="0.314" height="126.168"/>
		</g>
	</g>
	<g>
		<defs>
			<circle id="SVGID_5_" cx="176.375" cy="156.557" r="59.396"/>
		</defs>
		<clipPath id="SVGID_6_">
			<use xlink:href="#SVGID_5_"  overflow="visible"/>
		</clipPath>
		<g clip-path="url(#SVGID_6_)">
			<g id="XMLID_480_">
				
					<linearGradient id="XMLID_2_" gradientUnits="userSpaceOnUse" x1="400.3398" y1="-120.481" x2="400.3398" y2="-170.6201" gradientTransform="matrix(1 0 0 -1 -271 -4)">
					<stop  offset="0" style="stop-color:#70CDE2"/>
					<stop  offset="1" style="stop-color:#366899"/>
				</linearGradient>
				<rect id="XMLID_607_" x="126.401" y="150.615" fill="url(#XMLID_2_)" width="5.878" height="11.885"/>
				
					<linearGradient id="XMLID_3_" gradientUnits="userSpaceOnUse" x1="412.0977" y1="-120.4746" x2="412.0977" y2="-170.6211" gradientTransform="matrix(1 0 0 -1 -271 -4)">
					<stop  offset="0" style="stop-color:#70CDE2"/>
					<stop  offset="1" style="stop-color:#366899"/>
				</linearGradient>
				<rect id="XMLID_606_" x="138.159" y="137.545" fill="url(#XMLID_3_)" width="5.878" height="24.955"/>
				
					<linearGradient id="XMLID_4_" gradientUnits="userSpaceOnUse" x1="423.8574" y1="-120.4751" x2="423.8574" y2="-170.621" gradientTransform="matrix(1 0 0 -1 -271 -4)">
					<stop  offset="0" style="stop-color:#70CDE2"/>
					<stop  offset="1" style="stop-color:#366899"/>
				</linearGradient>
				<rect id="XMLID_605_" x="149.917" y="117.114" fill="url(#XMLID_4_)" width="5.879" height="45.386"/>
				
					<linearGradient id="XMLID_5_" gradientUnits="userSpaceOnUse" x1="435.6152" y1="-120.4746" x2="435.6152" y2="-170.6212" gradientTransform="matrix(1 0 0 -1 -271 -4)">
					<stop  offset="0" style="stop-color:#70CDE2"/>
					<stop  offset="1" style="stop-color:#366899"/>
				</linearGradient>
				<rect id="XMLID_604_" x="161.676" y="123.837" fill="url(#XMLID_5_)" width="5.879" height="38.663"/>
				
					<linearGradient id="XMLID_6_" gradientUnits="userSpaceOnUse" x1="447.375" y1="-120.4761" x2="447.375" y2="-170.6209" gradientTransform="matrix(1 0 0 -1 -271 -4)">
					<stop  offset="0" style="stop-color:#70CDE2"/>
					<stop  offset="1" style="stop-color:#366899"/>
				</linearGradient>
				<rect id="XMLID_603_" x="173.436" y="132.973" fill="url(#XMLID_6_)" width="5.879" height="29.527"/>
				
					<linearGradient id="XMLID_7_" gradientUnits="userSpaceOnUse" x1="459.1338" y1="-120.4756" x2="459.1338" y2="-170.6206" gradientTransform="matrix(1 0 0 -1 -271 -4)">
					<stop  offset="0" style="stop-color:#70CDE2"/>
					<stop  offset="1" style="stop-color:#366899"/>
				</linearGradient>
				<rect id="XMLID_602_" x="185.193" y="111.357" fill="url(#XMLID_7_)" width="5.881" height="51.143"/>
				
					<linearGradient id="XMLID_8_" gradientUnits="userSpaceOnUse" x1="470.8926" y1="-70.3682" x2="470.8926" y2="-175.1073" gradientTransform="matrix(1 0 0 -1 -271 -4)">
					<stop  offset="0" style="stop-color:#70CDE2"/>
					<stop  offset="1" style="stop-color:#366899"/>
				</linearGradient>
				<rect id="XMLID_601_" x="196.953" y="126.588" fill="url(#XMLID_8_)" width="5.879" height="35.912"/>
				
					<linearGradient id="XMLID_9_" gradientUnits="userSpaceOnUse" x1="482.6514" y1="-84.9033" x2="482.6514" y2="-173.8059" gradientTransform="matrix(1 0 0 -1 -271 -4)">
					<stop  offset="0" style="stop-color:#70CDE2"/>
					<stop  offset="1" style="stop-color:#366899"/>
				</linearGradient>
				<rect id="XMLID_600_" x="208.711" y="121.009" fill="url(#XMLID_9_)" width="5.881" height="41.491"/>
				
					<linearGradient id="XMLID_10_" gradientUnits="userSpaceOnUse" x1="494.4102" y1="-62.2266" x2="494.4102" y2="-175.8366" gradientTransform="matrix(1 0 0 -1 -271 -4)">
					<stop  offset="0" style="stop-color:#70CDE2"/>
					<stop  offset="1" style="stop-color:#366899"/>
				</linearGradient>
				<rect id="XMLID_599_" x="220.471" y="129.4" fill="url(#XMLID_10_)" width="5.879" height="33.1"/>
				
					<linearGradient id="XMLID_11_" gradientUnits="userSpaceOnUse" x1="506.168" y1="-120.4785" x2="506.168" y2="-170.6205" gradientTransform="matrix(1 0 0 -1 -271 -4)">
					<stop  offset="0" style="stop-color:#70CDE2"/>
					<stop  offset="1" style="stop-color:#366899"/>
				</linearGradient>
				<rect id="XMLID_598_" x="232.229" y="134.961" fill="url(#XMLID_11_)" width="5.879" height="27.539"/>
				
					<linearGradient id="XMLID_12_" gradientUnits="userSpaceOnUse" x1="517.9277" y1="-120.4746" x2="517.9277" y2="-170.6208" gradientTransform="matrix(1 0 0 -1 -271 -4)">
					<stop  offset="0" style="stop-color:#70CDE2"/>
					<stop  offset="1" style="stop-color:#366899"/>
				</linearGradient>
				<rect id="XMLID_597_" x="243.988" y="118.665" fill="url(#XMLID_12_)" width="5.879" height="43.835"/>
				
					<linearGradient id="XMLID_13_" gradientUnits="userSpaceOnUse" x1="529.6865" y1="-120.4775" x2="529.6865" y2="-170.6207" gradientTransform="matrix(1 0 0 -1 -271 -4)">
					<stop  offset="0" style="stop-color:#70CDE2"/>
					<stop  offset="1" style="stop-color:#366899"/>
				</linearGradient>
				<rect id="XMLID_596_" x="255.746" y="129.529" fill="url(#XMLID_13_)" width="5.881" height="32.971"/>
				
					<linearGradient id="XMLID_14_" gradientUnits="userSpaceOnUse" x1="541.4453" y1="-120.4766" x2="541.4453" y2="-170.6211" gradientTransform="matrix(1 0 0 -1 -271 -4)">
					<stop  offset="0" style="stop-color:#70CDE2"/>
					<stop  offset="1" style="stop-color:#366899"/>
				</linearGradient>
				<rect id="XMLID_595_" x="267.506" y="135.994" fill="url(#XMLID_14_)" width="5.879" height="26.506"/>
				<g id="XMLID_579_">
					
						<linearGradient id="XMLID_15_" gradientUnits="userSpaceOnUse" x1="394.4609" y1="-203.5811" x2="394.4609" y2="-170.9688" gradientTransform="matrix(1 0 0 -1 -271 -4)">
						<stop  offset="0" style="stop-color:#616CB2"/>
						<stop  offset="1" style="stop-color:#3B3274"/>
					</linearGradient>
					<rect id="XMLID_594_" x="120.521" y="162.5" fill="url(#XMLID_15_)" width="5.88" height="6.975"/>
					
						<linearGradient id="XMLID_16_" gradientUnits="userSpaceOnUse" x1="406.2188" y1="-203.5825" x2="406.2188" y2="-170.9693" gradientTransform="matrix(1 0 0 -1 -271 -4)">
						<stop  offset="0" style="stop-color:#616CB2"/>
						<stop  offset="1" style="stop-color:#3B3274"/>
					</linearGradient>
					<rect id="XMLID_593_" x="132.279" y="162.5" fill="url(#XMLID_16_)" width="5.88" height="16.723"/>
					
						<linearGradient id="XMLID_17_" gradientUnits="userSpaceOnUse" x1="417.9785" y1="-203.583" x2="417.9785" y2="-170.9691" gradientTransform="matrix(1 0 0 -1 -271 -4)">
						<stop  offset="0" style="stop-color:#616CB2"/>
						<stop  offset="1" style="stop-color:#3B3274"/>
					</linearGradient>
					<rect id="XMLID_592_" x="144.038" y="162.5" fill="url(#XMLID_17_)" width="5.88" height="23.928"/>
					
						<linearGradient id="XMLID_18_" gradientUnits="userSpaceOnUse" x1="429.7363" y1="-203.5806" x2="429.7363" y2="-170.969" gradientTransform="matrix(1 0 0 -1 -271 -4)">
						<stop  offset="0" style="stop-color:#616CB2"/>
						<stop  offset="1" style="stop-color:#3B3274"/>
					</linearGradient>
					<rect id="XMLID_591_" x="155.797" y="162.5" fill="url(#XMLID_18_)" width="5.879" height="12.287"/>
					
						<linearGradient id="XMLID_19_" gradientUnits="userSpaceOnUse" x1="441.4951" y1="-203.582" x2="441.4951" y2="-170.969" gradientTransform="matrix(1 0 0 -1 -271 -4)">
						<stop  offset="0" style="stop-color:#616CB2"/>
						<stop  offset="1" style="stop-color:#3B3274"/>
					</linearGradient>
					<rect id="XMLID_590_" x="167.555" y="162.5" fill="url(#XMLID_19_)" width="5.881" height="30.133"/>
					
						<linearGradient id="XMLID_20_" gradientUnits="userSpaceOnUse" x1="453.2549" y1="-203.583" x2="453.2549" y2="-170.9692" gradientTransform="matrix(1 0 0 -1 -271 -4)">
						<stop  offset="0" style="stop-color:#616CB2"/>
						<stop  offset="1" style="stop-color:#3B3274"/>
					</linearGradient>
					<rect id="XMLID_588_" x="179.314" y="162.5" fill="url(#XMLID_20_)" width="5.881" height="39.961"/>
					
						<linearGradient id="XMLID_21_" gradientUnits="userSpaceOnUse" x1="465.0137" y1="-203.5825" x2="465.0137" y2="-170.9693" gradientTransform="matrix(1 0 0 -1 -271 -4)">
						<stop  offset="0" style="stop-color:#616CB2"/>
						<stop  offset="1" style="stop-color:#3B3274"/>
					</linearGradient>
					<rect id="XMLID_587_" x="191.074" y="162.5" fill="url(#XMLID_21_)" width="5.879" height="33.236"/>
					
						<linearGradient id="XMLID_22_" gradientUnits="userSpaceOnUse" x1="476.7715" y1="-203.5801" x2="476.7715" y2="-170.9689" gradientTransform="matrix(1 0 0 -1 -271 -4)">
						<stop  offset="0" style="stop-color:#616CB2"/>
						<stop  offset="1" style="stop-color:#3B3274"/>
					</linearGradient>
					<rect id="XMLID_585_" x="202.832" y="162.5" fill="url(#XMLID_22_)" width="5.879" height="16.166"/>
					
						<linearGradient id="XMLID_23_" gradientUnits="userSpaceOnUse" x1="488.5313" y1="-203.5825" x2="488.5313" y2="-170.969" gradientTransform="matrix(1 0 0 -1 -271 -4)">
						<stop  offset="0" style="stop-color:#616CB2"/>
						<stop  offset="1" style="stop-color:#3B3274"/>
					</linearGradient>
					<rect id="XMLID_584_" x="214.592" y="162.5" fill="url(#XMLID_23_)" width="5.879" height="22.115"/>
					
						<linearGradient id="XMLID_24_" gradientUnits="userSpaceOnUse" x1="500.2891" y1="-203.5825" x2="500.2891" y2="-170.9693" gradientTransform="matrix(1 0 0 -1 -271 -4)">
						<stop  offset="0" style="stop-color:#616CB2"/>
						<stop  offset="1" style="stop-color:#3B3274"/>
					</linearGradient>
					<rect id="XMLID_583_" x="226.35" y="162.5" fill="url(#XMLID_24_)" width="5.879" height="27.029"/>
					
						<linearGradient id="XMLID_25_" gradientUnits="userSpaceOnUse" x1="512.0479" y1="-203.583" x2="512.0479" y2="-170.9692" gradientTransform="matrix(1 0 0 -1 -271 -4)">
						<stop  offset="0" style="stop-color:#616CB2"/>
						<stop  offset="1" style="stop-color:#3B3274"/>
					</linearGradient>
					<rect id="XMLID_582_" x="238.107" y="162.5" fill="url(#XMLID_25_)" width="5.881" height="17.719"/>
					
						<linearGradient id="XMLID_26_" gradientUnits="userSpaceOnUse" x1="523.8066" y1="-203.583" x2="523.8066" y2="-170.969" gradientTransform="matrix(1 0 0 -1 -271 -4)">
						<stop  offset="0" style="stop-color:#616CB2"/>
						<stop  offset="1" style="stop-color:#3B3274"/>
					</linearGradient>
					<rect id="XMLID_581_" x="249.867" y="162.5" fill="url(#XMLID_26_)" width="5.879" height="10.221"/>
					
						<linearGradient id="XMLID_27_" gradientUnits="userSpaceOnUse" x1="535.5664" y1="-203.5869" x2="535.5664" y2="-170.9699" gradientTransform="matrix(1 0 0 -1 -271 -4)">
						<stop  offset="0" style="stop-color:#616CB2"/>
						<stop  offset="1" style="stop-color:#3B3274"/>
					</linearGradient>
					<rect id="XMLID_580_" x="261.627" y="162.5" fill="url(#XMLID_27_)" width="5.879" height="11.771"/>
				</g>
				<rect id="XMLID_578_" x="114.974" y="161.824" fill="#B4B4B4" width="163.958" height="0.678"/>
			</g>
		</g>
	</g>
</g>
<g>
	<g>
		<defs>
			<circle id="SVGID_7_" cx="253.648" cy="76.716" r="43.108"/>
		</defs>
		<clipPath id="SVGID_8_">
			<use xlink:href="#SVGID_7_"  overflow="visible"/>
		</clipPath>
		<g id="XMLID_189_" clip-path="url(#SVGID_8_)">
			<rect id="XMLID_408_" x="194.256" y="11.346" fill="#21254F" width="182.469" height="123.766"/>
			<rect id="XMLID_407_" x="209.887" y="37.013" fill="#384979" width="151.207" height="0.226"/>
			<rect id="XMLID_406_" x="209.887" y="44.887" fill="#384979" width="151.207" height="0.226"/>
			<rect id="XMLID_405_" x="209.887" y="52.759" fill="#384979" width="151.207" height="0.227"/>
			<rect id="XMLID_404_" x="209.887" y="60.632" fill="#384979" width="151.207" height="0.226"/>
			<rect id="XMLID_403_" x="209.887" y="68.505" fill="#384979" width="151.207" height="0.226"/>
			<rect id="XMLID_402_" x="209.887" y="76.378" fill="#384979" width="151.207" height="0.226"/>
			<rect id="XMLID_401_" x="209.887" y="84.25" fill="#384979" width="151.207" height="0.226"/>
			<rect id="XMLID_400_" x="209.887" y="92.124" fill="#384979" width="151.207" height="0.226"/>
			<rect id="XMLID_399_" x="209.887" y="99.996" fill="#384979" width="151.207" height="0.227"/>
			<rect id="XMLID_398_" x="209.887" y="107.87" fill="#384979" width="151.207" height="0.227"/>
			<rect id="XMLID_397_" x="209.887" y="115.743" fill="#384979" width="151.207" height="0.226"/>
			<rect id="XMLID_396_" x="214.52" y="31.153" fill="#384979" width="0.227" height="90.677"/>
			<rect id="XMLID_395_" x="222.395" y="31.153" fill="#384979" width="0.225" height="90.677"/>
			<rect id="XMLID_394_" x="230.266" y="31.153" fill="#384979" width="0.227" height="90.677"/>
			<rect id="XMLID_393_" x="238.141" y="31.153" fill="#384979" width="0.225" height="90.677"/>
			<rect id="XMLID_392_" x="246.012" y="31.153" fill="#384979" width="0.227" height="90.677"/>
			<rect id="XMLID_391_" x="253.885" y="31.153" fill="#384979" width="0.227" height="90.677"/>
			<rect id="XMLID_390_" x="261.76" y="31.153" fill="#384979" width="0.225" height="90.677"/>
			<rect id="XMLID_389_" x="269.631" y="31.153" fill="#384979" width="0.227" height="90.677"/>
			<rect id="XMLID_388_" x="277.504" y="31.153" fill="#384979" width="0.227" height="90.677"/>
			<rect id="XMLID_387_" x="285.377" y="31.153" fill="#384979" width="0.227" height="90.677"/>
			<rect id="XMLID_386_" x="293.25" y="31.153" fill="#384979" width="0.227" height="90.677"/>
			<rect id="XMLID_385_" x="301.123" y="31.153" fill="#384979" width="0.225" height="90.677"/>
			<rect id="XMLID_384_" x="308.996" y="31.153" fill="#384979" width="0.225" height="90.677"/>
			<rect id="XMLID_383_" x="316.869" y="31.153" fill="#384979" width="0.225" height="90.677"/>
			<rect id="XMLID_382_" x="324.74" y="31.153" fill="#38497A" width="0.227" height="90.677"/>
			<rect id="XMLID_381_" x="332.613" y="31.153" fill="#384979" width="0.227" height="90.677"/>
			<rect id="XMLID_380_" x="340.488" y="31.153" fill="#384979" width="0.225" height="90.677"/>
			<rect id="XMLID_379_" x="348.359" y="31.153" fill="#384979" width="0.227" height="90.677"/>
			<rect id="XMLID_378_" x="356.232" y="31.153" fill="#384979" width="0.225" height="90.677"/>
			<path id="XMLID_249_" fill="#844C9B" d="M214.52,83.032c0.799,0,1.445,0.646,1.445,1.444s-0.646,1.445-1.445,1.445
				c-0.797,0-1.443-0.647-1.443-1.445S213.723,83.032,214.52,83.032 M214.52,82.379c1.16,0,2.1,0.938,2.1,2.098
				s-0.939,2.097-2.1,2.097c-1.158,0-2.098-0.938-2.098-2.097S213.361,82.379,214.52,82.379z"/>
			<path id="XMLID_246_" fill="#844C9B" d="M230.492,90.68c0.799,0,1.445,0.646,1.445,1.444c0,0.797-0.646,1.445-1.445,1.445
				c-0.797,0-1.445-0.647-1.445-1.445C229.047,91.325,229.695,90.68,230.492,90.68 M230.492,90.026c1.158,0,2.098,0.939,2.098,2.098
				c0,1.158-0.939,2.098-2.098,2.098s-2.098-0.939-2.098-2.098C228.395,90.965,229.334,90.026,230.492,90.026z"/>
			<path id="XMLID_243_" fill="#844C9B" d="M246.012,67.287c0.799,0,1.445,0.646,1.445,1.445c0,0.798-0.646,1.444-1.445,1.444
				s-1.445-0.646-1.445-1.444C244.566,67.933,245.213,67.287,246.012,67.287 M246.012,66.634c1.158,0,2.098,0.938,2.098,2.098
				c0,1.158-0.938,2.097-2.098,2.097c-1.158,0-2.098-0.939-2.098-2.097C243.914,67.572,244.854,66.634,246.012,66.634z"/>
			<path id="XMLID_240_" fill="#844C9B" d="M261.984,59.188c0.797,0,1.445,0.646,1.445,1.444c0,0.799-0.648,1.445-1.445,1.445
				c-0.799,0-1.445-0.646-1.445-1.445C260.539,59.834,261.186,59.188,261.984,59.188 M261.984,58.535
				c1.158,0,2.098,0.938,2.098,2.097s-0.939,2.098-2.098,2.098s-2.098-0.939-2.098-2.098
				C259.887,59.474,260.826,58.535,261.984,58.535z"/>
			<path id="XMLID_237_" fill="#844C9B" d="M277.729,63.648c0.799,0,1.445,0.647,1.445,1.445s-0.646,1.445-1.445,1.445
				c-0.797,0-1.443-0.647-1.443-1.445S276.932,63.648,277.729,63.648 M277.729,62.996c1.158,0,2.098,0.939,2.098,2.097
				s-0.938,2.098-2.098,2.098c-1.158,0-2.098-0.938-2.098-2.098C275.631,63.935,276.57,62.996,277.729,62.996z"/>
			<path id="XMLID_234_" fill="#844C9B" d="M293.477,52.759c0.797,0,1.443,0.647,1.443,1.444c0,0.798-0.646,1.445-1.443,1.445
				c-0.799,0-1.445-0.646-1.445-1.445C292.031,53.407,292.678,52.759,293.477,52.759 M293.477,52.107
				c1.158,0,2.096,0.938,2.096,2.096c0,1.159-0.938,2.099-2.096,2.099c-1.16,0-2.1-0.939-2.1-2.099
				C291.377,53.045,292.316,52.107,293.477,52.107z"/>
			<path id="XMLID_231_" fill="#844C9B" d="M309.221,47.269c0.799,0,1.445,0.646,1.445,1.445c0,0.798-0.646,1.445-1.445,1.445
				c-0.797,0-1.443-0.647-1.443-1.445C307.777,47.915,308.424,47.269,309.221,47.269 M309.221,46.616
				c1.158,0,2.098,0.939,2.098,2.098c0,1.159-0.938,2.097-2.098,2.097c-1.158,0-2.096-0.938-2.096-2.097
				C307.125,47.556,308.063,46.616,309.221,46.616z"/>
			<path id="XMLID_228_" fill="#844C9B" d="M324.967,64.212c0.799,0,1.445,0.647,1.445,1.445s-0.646,1.444-1.445,1.444
				c-0.797,0-1.445-0.646-1.445-1.444C323.521,64.859,324.17,64.212,324.967,64.212 M324.967,63.559
				c1.158,0,2.098,0.939,2.098,2.098c0,1.159-0.938,2.097-2.098,2.097c-1.158,0-2.098-0.938-2.098-2.097
				C322.869,64.499,323.809,63.559,324.967,63.559z"/>
			<path id="XMLID_225_" fill="#844C9B" d="M340.488,55.521c0.797,0,1.443,0.647,1.443,1.445s-0.646,1.445-1.443,1.445
				c-0.799,0-1.445-0.647-1.445-1.445S339.689,55.521,340.488,55.521 M340.488,54.869c1.158,0,2.098,0.939,2.098,2.098
				c0,1.158-0.939,2.097-2.098,2.097c-1.16,0-2.098-0.938-2.098-2.097S339.328,54.869,340.488,54.869z"/>
			<path id="XMLID_222_" fill="#844C9B" d="M356.457,71.172c0.799,0,1.445,0.647,1.445,1.445s-0.645,1.445-1.445,1.445
				c-0.797,0-1.443-0.647-1.443-1.445S355.66,71.172,356.457,71.172 M356.457,70.52c1.16,0,2.1,0.939,2.1,2.097
				c0,1.159-0.939,2.098-2.1,2.098c-1.156,0-2.096-0.938-2.096-2.098C354.361,71.459,355.301,70.52,356.457,70.52z"/>
			<path id="XMLID_219_" fill="#844C9B" d="M356.457,63.734c-0.797,0-1.443-0.648-1.443-1.446s0.646-1.444,1.443-1.444
				c0.799,0,1.445,0.646,1.445,1.444S357.256,63.734,356.457,63.734 M356.457,64.386c-1.156,0-2.096-0.938-2.096-2.098
				c0-1.158,0.938-2.097,2.096-2.097c1.16,0,2.1,0.938,2.1,2.097C358.557,63.447,357.617,64.386,356.457,64.386z"/>
			<path id="XMLID_216_" fill="#844C9B" d="M340.486,46.556c-0.797,0-1.443-0.646-1.443-1.445c0-0.797,0.646-1.444,1.443-1.444
				c0.799,0,1.445,0.647,1.445,1.444C341.932,45.91,341.285,46.556,340.486,46.556 M340.486,47.209
				c-1.156,0-2.096-0.938-2.096-2.098c0-1.158,0.938-2.098,2.096-2.098c1.16,0,2.1,0.939,2.1,2.098
				C342.584,46.271,341.646,47.209,340.486,47.209z"/>
			<path id="XMLID_213_" fill="#844C9B" d="M324.967,59.657c-0.797,0-1.445-0.646-1.445-1.444c0-0.799,0.648-1.445,1.445-1.445
				c0.799,0,1.445,0.646,1.445,1.445C326.412,59.011,325.766,59.657,324.967,59.657 M324.967,60.31
				c-1.158,0-2.098-0.939-2.098-2.097c0-1.159,0.939-2.099,2.098-2.099s2.098,0.939,2.098,2.099
				C327.064,59.37,326.125,60.31,324.967,60.31z"/>
			<path id="XMLID_210_" fill="#844C9B" d="M308.996,93.569c-0.799,0-1.445-0.648-1.445-1.446s0.646-1.444,1.445-1.444
				c0.797,0,1.443,0.646,1.443,1.444C310.439,92.921,309.793,93.569,308.996,93.569 M308.996,94.221c-1.16,0-2.1-0.939-2.1-2.098
				c0-1.158,0.939-2.097,2.1-2.097c1.158,0,2.096,0.939,2.096,2.097C311.092,93.282,310.154,94.221,308.996,94.221z"/>
			<path id="XMLID_207_" fill="#844C9B" d="M293.25,83.117c-0.799,0-1.445-0.647-1.445-1.445s0.646-1.445,1.445-1.445
				c0.797,0,1.443,0.646,1.443,1.445C294.693,82.47,294.047,83.117,293.25,83.117 M293.25,83.769c-1.16,0-2.098-0.938-2.098-2.097
				c0-1.158,0.938-2.098,2.098-2.098c1.158,0,2.098,0.939,2.098,2.098C295.348,82.831,294.408,83.769,293.25,83.769z"/>
			<path id="XMLID_204_" fill="#844C9B" d="M277.504,58.087c-0.799,0-1.445-0.647-1.445-1.445s0.646-1.445,1.445-1.445
				c0.797,0,1.445,0.647,1.445,1.445S278.301,58.087,277.504,58.087 M277.504,58.74c-1.158,0-2.098-0.939-2.098-2.099
				c0-1.157,0.938-2.097,2.098-2.097c1.158,0,2.098,0.938,2.098,2.097C279.602,57.801,278.662,58.74,277.504,58.74z"/>
			<path id="XMLID_201_" fill="#844C9B" d="M261.76,72.606c-0.799,0-1.447-0.648-1.447-1.445c0-0.798,0.648-1.444,1.447-1.444
				c0.797,0,1.443,0.646,1.443,1.444C263.203,71.958,262.557,72.606,261.76,72.606 M261.76,73.258c-1.16,0-2.1-0.939-2.1-2.098
				s0.939-2.098,2.1-2.098c1.156,0,2.096,0.939,2.096,2.098S262.916,73.258,261.76,73.258z"/>
			<path id="XMLID_198_" fill="#844C9B" d="M246.012,82.554c-0.799,0-1.445-0.647-1.445-1.445c0-0.798,0.646-1.444,1.445-1.444
				s1.445,0.646,1.445,1.444C247.457,81.906,246.809,82.554,246.012,82.554 M246.012,83.207c-1.158,0-2.098-0.939-2.098-2.099
				c0-1.159,0.939-2.098,2.098-2.098s2.098,0.938,2.098,2.098C248.109,82.268,247.17,83.207,246.012,83.207z"/>
			<path id="XMLID_195_" fill="#844C9B" d="M230.492,83.789c-0.797,0-1.445-0.646-1.445-1.444c0-0.799,0.648-1.445,1.445-1.445
				c0.799,0,1.445,0.646,1.445,1.445C231.938,83.143,231.291,83.789,230.492,83.789 M230.492,84.442
				c-1.158,0-2.098-0.939-2.098-2.097c0-1.159,0.939-2.098,2.098-2.098s2.098,0.938,2.098,2.098
				C232.59,83.503,231.65,84.442,230.492,84.442z"/>
			<path id="XMLID_192_" fill="#844C9B" d="M214.52,98.308c-0.797,0-1.443-0.646-1.443-1.445c0-0.798,0.646-1.444,1.443-1.444
				c0.799,0,1.445,0.646,1.445,1.444C215.965,97.662,215.318,98.308,214.52,98.308 M214.52,98.96c-1.158,0-2.098-0.938-2.098-2.098
				c0-1.157,0.939-2.097,2.098-2.097c1.16,0,2.1,0.939,2.1,2.097S215.68,98.96,214.52,98.96z"/>
		</g>
	</g>
</g>
<g>
	<g>
		<defs>
			<circle id="SVGID_9_" cx="154.582" cy="39.483" r="35.982"/>
		</defs>
		<clipPath id="SVGID_10_">
			<use xlink:href="#SVGID_9_"  overflow="visible"/>
		</clipPath>
		<g clip-path="url(#SVGID_10_)">
			<rect id="XMLID_1654_" x="101.347" y="-21.031" fill="#21254F" width="178.434" height="121.028"/>
			<g id="XMLID_1576_">
				<rect id="XMLID_1653_" x="116.521" y="3.984" fill="#384979" width="147.864" height="0.221"/>
				<rect id="XMLID_1652_" x="116.521" y="11.684" fill="#384979" width="147.864" height="0.22"/>
				<rect id="XMLID_1651_" x="116.521" y="19.383" fill="#384979" width="147.864" height="0.22"/>
				<rect id="XMLID_1650_" x="116.521" y="27.082" fill="#384979" width="147.864" height="0.221"/>
				<rect id="XMLID_1649_" x="116.521" y="34.78" fill="#384979" width="147.864" height="0.221"/>
				<rect id="XMLID_1648_" x="116.521" y="42.479" fill="#384979" width="147.864" height="0.222"/>
				<rect id="XMLID_1647_" x="116.521" y="50.178" fill="#384979" width="147.864" height="0.221"/>
				<rect id="XMLID_1646_" x="116.521" y="57.877" fill="#384979" width="147.864" height="0.221"/>
				<rect id="XMLID_1645_" x="116.521" y="65.575" fill="#384979" width="147.864" height="0.221"/>
				<rect id="XMLID_1644_" x="116.521" y="73.274" fill="#384979" width="147.864" height="0.222"/>
				<rect id="XMLID_1643_" x="116.521" y="80.974" fill="#384979" width="147.864" height="0.221"/>
				<rect id="XMLID_1642_" x="121.054" y="-1.746" fill="#384979" width="0.221" height="88.672"/>
				<rect id="XMLID_1641_" x="128.751" y="-1.746" fill="#384979" width="0.222" height="88.672"/>
				<rect id="XMLID_1640_" x="136.451" y="-1.746" fill="#384979" width="0.221" height="88.672"/>
				<rect id="XMLID_1639_" x="144.15" y="-1.746" fill="#384979" width="0.221" height="88.672"/>
				<rect id="XMLID_1638_" x="151.85" y="-1.746" fill="#384979" width="0.221" height="88.672"/>
				<rect id="XMLID_1637_" x="159.547" y="-1.746" fill="#384979" width="0.223" height="88.672"/>
				<rect id="XMLID_1636_" x="167.246" y="-1.746" fill="#384979" width="0.221" height="88.672"/>
				<rect id="XMLID_1635_" x="174.945" y="-1.746" fill="#384979" width="0.221" height="88.672"/>
				<rect id="XMLID_1634_" x="182.645" y="-1.746" fill="#384979" width="0.221" height="88.672"/>
				<rect id="XMLID_1633_" x="190.344" y="-1.746" fill="#384979" width="0.221" height="88.672"/>
				<rect id="XMLID_1632_" x="198.041" y="-1.746" fill="#384979" width="0.221" height="88.672"/>
				<rect id="XMLID_1631_" x="205.74" y="-1.746" fill="#384979" width="0.221" height="88.672"/>
				<rect id="XMLID_1630_" x="213.439" y="-1.746" fill="#384979" width="0.221" height="88.672"/>
				<rect id="XMLID_1629_" x="221.139" y="-1.746" fill="#384979" width="0.221" height="88.672"/>
				<rect id="XMLID_1628_" x="228.838" y="-1.746" fill="#384979" width="0.221" height="88.672"/>
				<rect id="XMLID_1627_" x="236.535" y="-1.746" fill="#384979" width="0.223" height="88.672"/>
				<rect id="XMLID_1626_" x="244.234" y="-1.746" fill="#384979" width="0.221" height="88.672"/>
				<rect id="XMLID_1625_" x="251.934" y="-1.746" fill="#384979" width="0.221" height="88.672"/>
				<rect id="XMLID_1624_" x="259.633" y="-1.746" fill="#384979" width="0.221" height="88.672"/>
			</g>
			
				<linearGradient id="XMLID_28_" gradientUnits="userSpaceOnUse" x1="461.3438" y1="-89.1382" x2="461.3438" y2="-11.4114" gradientTransform="matrix(1 0 0 -1 -271 -4)">
				<stop  offset="0" style="stop-color:#EF7D99;stop-opacity:0"/>
				<stop  offset="1" style="stop-color:#EF7D99"/>
			</linearGradient>
			<polygon id="XMLID_1607_" fill="url(#XMLID_28_)" points="121.054,49.668 122.302,49.668 122.302,46.435 123.55,46.435 
				123.55,47.822 124.799,47.822 124.799,52.19 126.047,52.19 126.047,43.255 127.295,43.255 127.295,40.226 128.543,40.226 
				128.543,42.015 129.792,42.015 129.792,45.042 131.041,45.042 131.041,41.194 132.29,41.194 132.29,36.852 133.538,36.852 
				133.538,31.54 134.786,31.54 134.786,33.792 136.035,33.792 136.035,35.362 137.284,35.362 137.284,47.028 138.531,47.028 
				138.531,45.687 139.78,45.687 139.78,40.028 141.029,40.028 141.029,38.54 142.277,38.54 142.277,41.667 143.525,41.667 
				143.525,32.483 144.774,32.483 144.774,36.342 146.023,36.342 146.023,22.684 147.271,22.684 147.271,12.794 148.519,12.794 
				148.519,14.051 149.768,14.051 149.768,15.979 151.018,15.979 151.018,10.925 152.264,10.925 152.264,31.992 153.514,31.992 
				153.514,29.676 154.762,29.676 154.762,35.179 156.012,35.179 156.012,23.595 157.26,23.595 157.26,27.07 158.508,27.07 
				158.508,29.242 159.756,29.242 159.756,31.992 161.004,31.992 161.004,27.939 162.252,27.939 162.252,33.792 163.502,33.792 
				163.502,35.637 164.75,35.637 165.998,35.637 165.998,39.363 167.246,39.363 167.246,36.959 168.494,36.959 168.494,43.569 
				169.744,43.569 169.744,27.826 170.992,27.826 170.992,29.989 172.24,29.989 172.24,19.653 173.488,19.653 173.488,32.032 
				174.738,32.032 174.738,30.709 175.984,30.709 175.984,23.619 177.234,23.619 177.234,16.889 178.482,16.889 178.482,14.966 
				179.73,14.966 179.73,12.081 180.979,12.081 180.979,25.95 182.229,25.95 182.229,28.787 183.477,28.787 183.477,31.671 
				184.725,31.671 184.725,28.787 185.973,28.787 185.973,19.772 187.223,19.772 187.223,13.523 188.469,13.523 188.469,7.033 
				189.719,7.033 189.719,17.249 190.967,17.249 190.967,15.566 192.215,15.566 192.215,12.997 193.463,12.997 193.463,18.329 
				194.713,18.329 194.713,15.804 195.961,15.804 195.961,21.238 197.209,21.238 197.209,10.925 198.459,10.925 198.459,12.997 
				199.707,12.997 199.707,16.135 200.955,16.135 200.955,19.979 202.203,19.979 202.203,23.226 203.451,23.226 203.451,30.583 
				204.699,30.583 204.699,14.346 205.949,14.346 205.949,11.297 207.197,11.297 207.197,9.641 208.445,9.641 208.445,18.329 
				209.695,18.329 209.695,16.284 210.943,16.284 210.943,19.126 212.191,19.126 212.191,13.126 213.439,13.126 213.439,14.453 
				214.688,14.453 214.688,16.726 215.936,16.726 215.936,19.884 217.186,19.884 217.186,25.95 218.434,25.95 218.434,22.629 
				219.682,22.629 219.682,24.494 220.93,24.494 220.93,11.738 222.178,11.738 222.178,13.189 223.428,13.189 223.428,14.642 
				224.676,14.642 224.676,10.925 225.924,10.925 225.924,19.821 227.172,19.821 227.172,18.329 228.422,18.329 228.422,7.759 
				229.67,7.759 229.67,15.196 230.918,15.196 230.918,24.925 232.166,24.925 232.166,22.39 233.414,22.39 233.414,26.438 
				234.664,26.438 234.664,28.975 235.91,28.975 235.91,19.984 237.16,19.984 237.16,24.522 238.408,24.522 238.408,31.716 
				239.658,31.716 239.658,15.196 240.906,15.196 240.906,10.925 242.152,10.925 242.152,12.62 243.402,12.62 243.402,19.642 
				244.65,19.642 244.65,15.196 245.9,15.196 245.9,22.863 247.146,22.863 247.146,25.314 248.396,25.314 248.396,35.669 
				249.645,35.669 249.645,29.902 250.895,29.902 250.895,22.863 252.141,22.863 252.141,28.477 253.389,28.477 253.389,33.792 
				254.639,33.792 254.639,37.715 255.887,37.715 255.887,31.267 257.137,31.267 257.137,35.483 258.383,35.483 258.383,22.863 
				259.633,22.863 259.633,86.926 258.383,86.926 257.137,86.926 255.887,86.926 254.639,86.926 253.389,86.926 252.141,86.926 
				250.895,86.926 249.645,86.926 248.396,86.926 247.146,86.926 245.9,86.926 244.65,86.926 243.402,86.926 242.152,86.926 
				240.906,86.926 239.658,86.926 238.408,86.926 237.16,86.926 235.91,86.926 234.664,86.926 233.414,86.926 232.166,86.926 
				230.918,86.926 229.67,86.926 228.422,86.926 227.172,86.926 225.924,86.926 224.676,86.926 223.428,86.926 222.178,86.926 
				220.93,86.926 219.682,86.926 218.434,86.926 217.186,86.926 215.936,86.926 214.688,86.926 213.439,86.926 212.191,86.926 
				210.943,86.926 209.695,86.926 208.445,86.926 207.197,86.926 205.949,86.926 204.699,86.926 203.451,86.926 202.203,86.926 
				200.955,86.926 199.707,86.926 198.459,86.926 197.209,86.926 195.961,86.926 194.713,86.926 193.463,86.926 192.215,86.926 
				190.967,86.926 189.719,86.926 188.469,86.926 187.223,86.926 185.973,86.926 184.725,86.926 183.477,86.926 182.229,86.926 
				180.979,86.926 179.73,86.926 178.482,86.926 177.234,86.926 175.984,86.926 174.738,86.926 173.488,86.926 172.24,86.926 
				170.992,86.926 169.744,86.926 168.494,86.926 167.246,86.926 165.998,86.926 164.75,86.926 163.502,86.926 162.252,86.926 
				161.004,86.926 159.756,86.926 158.508,86.926 157.26,86.926 156.012,86.926 154.762,86.926 153.514,86.926 152.264,86.926 
				151.018,86.926 149.768,86.926 148.519,86.926 147.271,86.926 146.023,86.926 144.774,86.926 143.525,86.926 142.277,86.926 
				141.029,86.926 139.78,86.926 138.531,86.926 137.284,86.926 136.035,86.926 134.786,86.926 133.538,86.926 132.29,86.926 
				131.041,86.926 129.792,86.926 128.543,86.926 127.295,86.926 126.047,86.926 124.799,86.926 123.55,86.926 122.302,86.926 
				121.054,86.926 			"/>
			<text id="XMLID_1575_" transform="matrix(1 0 0 1 116.52 -10.6294)" fill="#FFFFFF" font-family="'ArialMT'" font-size="4.5603">USER GROWTH STATISTIC</text>
			<text id="XMLID_1579_" transform="matrix(1 0 0 1 116.52 -6.2935)" fill="#FFFFFF" font-family="'ArialMT'" font-size="2.8279">Lorem ipsum dolor sit amet</text>
			
				<text id="XMLID_1578_" transform="matrix(1 0 0 1 257.7227 -10.6294)" fill="#FFFFFF" font-family="'ArialMT'" font-size="4.5603">01</text>
		</g>
	</g>
</g>
</svg>
