<?xml version="1.0" encoding="utf-8"?>
<!-- Generator: Adobe Illustrator 16.0.0, SVG Export Plug-In . SVG Version: 6.00 Build 0)  -->
<!DOCTYPE svg PUBLIC "-//W3C//DTD SVG 1.1//EN" "http://www.w3.org/Graphics/SVG/1.1/DTD/svg11.dtd">
<svg version="1.1" id="Layer_1" xmlns="http://www.w3.org/2000/svg" xmlns:xlink="http://www.w3.org/1999/xlink" x="0px" y="0px"
	 width="391.333px" height="250px" viewBox="0 0 391.333 250" enable-background="new 0 0 391.333 250" xml:space="preserve">
<g>
	<g>
		<polygon fill="#CCCCCC" points="56.107,178.418 1.686,239.427 389.865,239.427 328.806,178.367 		"/>
		<polygon fill="#757678" points="66.681,184.837 41.825,214.486 352.999,214.486 323.329,184.813 		"/>
		<polygon fill="#757678" points="159.954,218.609 152.834,231.77 241.991,231.77 233.488,218.598 		"/>
		<path fill="#757576" d="M57.929,179.731c-2.288,0-4.14-1.851-4.14-4.136V5.75c0-2.285,1.853-4.139,4.14-4.139H324.93
			c2.287,0,4.14,1.854,4.14,4.139v169.846c0,2.285-1.853,4.136-4.14,4.136H57.929L57.929,179.731z"/>
		<path fill="#CCCCCC" d="M60.165,178.324c-2.243,0-4.058-1.817-4.058-4.058V7.08c0-2.245,1.815-4.063,4.058-4.063h263.29
			c2.241,0,4.059,1.819,4.059,4.063v167.187c0,2.24-1.817,4.058-4.059,4.058H60.165z"/>
		<g>
			<rect x="64.105" y="12.938" fill="#F4F4F4" width="255.409" height="155.463"/>
			<g>
				<path fill="#C1C0C0" d="M319.516,27.638c0,3.606-2.925,6.532-6.532,6.532H70.639c-3.608,0-6.533-2.926-6.533-6.532v-14.7
					h255.409V27.638z"/>
				<g>
					<path fill="#FFFFFF" d="M305.54,23.554c0,1.984-1.413,3.593-3.158,3.593h-33.016c-1.744,0-3.158-1.609-3.158-3.593l0,0
						c0-1.984,1.414-3.593,3.158-3.593h33.016C304.127,19.961,305.54,21.57,305.54,23.554L305.54,23.554z"/>
					<g>
						<path fill="#FFFFFF" d="M254.591,23.554c0,1.984-1.415,3.593-3.158,3.593H81.239c-1.744,0-3.157-1.609-3.157-3.593l0,0
							c0-1.984,1.413-3.593,3.157-3.593h170.194C253.176,19.961,254.591,21.57,254.591,23.554L254.591,23.554z"/>
						<text transform="matrix(1 0 0 1 85.9141 24.7036)" font-family="'ArialMT'" font-size="3.9193">https://www.yourwebsite.com</text>
						<circle fill="#A7A9AC" cx="81.318" cy="23.554" r="2.583"/>
					</g>
				</g>
			</g>
		</g>
		<rect x="1.686" y="239.427" fill="#5E5F5F" width="388.18" height="8.962"/>
	</g>
</g>
<rect x="213.579" y="44.401" fill="#CDDCE0" width="90.144" height="65.321"/>
<rect x="83.9" y="44.401" fill="#CDDCE0" width="124.453" height="65.321"/>
<rect x="83.9" y="155.666" fill="#CDDCE0" width="219.822" height="12.735"/>
<rect x="83.9" y="115.442" fill="#CDDCE0" width="63.703" height="35.215"/>
<rect x="152.553" y="115.442" fill="#CDDCE0" width="82.519" height="35.215"/>
<rect x="240.021" y="115.442" fill="#CDDCE0" width="63.702" height="35.215"/>
</svg>
