<?xml version="1.0" encoding="utf-8"?>
<!-- Generator: Adobe Illustrator 16.0.0, SVG Export Plug-In . SVG Version: 6.00 Build 0)  -->
<!DOCTYPE svg PUBLIC "-//W3C//DTD SVG 1.1//EN" "http://www.w3.org/Graphics/SVG/1.1/DTD/svg11.dtd">
<svg version="1.1" id="Layer_1" xmlns="http://www.w3.org/2000/svg" xmlns:xlink="http://www.w3.org/1999/xlink" x="0px" y="0px"
	 width="726px" height="693px" viewBox="34.5 -106.5 726 693" enable-background="new 34.5 -106.5 726 693" xml:space="preserve">
<ellipse fill="#E2E0D3" cx="416.225" cy="-4.865" rx="0" ry="5.308"/>
<g>
	<g>
		<g>
			<path fill="#0E0E0E" d="M512.535,521.587H60.667c-7.677,0-13.911-6.223-13.911-13.907V206.736
				c0-7.681,6.226-13.913,13.911-13.913h451.872c7.682,0,13.903,6.227,13.903,13.913v300.946
				C526.447,515.364,520.217,521.587,512.535,521.587z"/>
		</g>
		<g>
			
				<linearGradient id="SVGID_1_" gradientUnits="userSpaceOnUse" x1="178.3867" y1="344.4355" x2="399.037" y2="-15.4344" gradientTransform="matrix(1 0 0 -1 0 503)">
				<stop  offset="0" style="stop-color:#05BAB9"/>
				<stop  offset="1" style="stop-color:#24336D"/>
			</linearGradient>
			<rect x="66.661" y="210.716" fill="url(#SVGID_1_)" width="439.89" height="248.702"/>
		</g>
		
			<linearGradient id="SVGID_2_" gradientUnits="userSpaceOnUse" x1="286.5547" y1="-18.5996" x2="286.5547" y2="-72.3203" gradientTransform="matrix(1 0 0 -1 0 503)">
			<stop  offset="0" style="stop-color:#939598"/>
			<stop  offset="0.0441" style="stop-color:#9FA2A4"/>
			<stop  offset="0.1423" style="stop-color:#B7B9BB"/>
			<stop  offset="0.2468" style="stop-color:#CACCCE"/>
			<stop  offset="0.3591" style="stop-color:#D8D9DA"/>
			<stop  offset="0.4846" style="stop-color:#E0E1E2"/>
			<stop  offset="0.6505" style="stop-color:#E2E3E4"/>
			<stop  offset="0.8172" style="stop-color:#8A8C8E"/>
			<stop  offset="0.8495" style="stop-color:#77787B"/>
			<stop  offset="0.8816" style="stop-color:#87898C"/>
			<stop  offset="0.9244" style="stop-color:#999B9D"/>
			<stop  offset="0.9648" style="stop-color:#A3A5A8"/>
			<stop  offset="1" style="stop-color:#A7A9AC"/>
		</linearGradient>
		<path fill="url(#SVGID_2_)" d="M355.948,575.311c1.891,0.006,2.873-0.162,2.98-0.235c0.947-0.71,0.828-1.377,0-2.014
			c-0.114-0.084-0.227-0.177-0.369-0.261c-0.246-0.153-0.541-0.304-0.865-0.451c-0.516-0.237-1.126-0.47-1.787-0.697
			c-0.688-0.241-1.427-0.475-2.226-0.702c-0.829-0.236-1.696-0.469-2.578-0.696c-0.917-0.238-1.851-0.474-2.781-0.702
			c-1.02-0.257-2.022-0.503-2.972-0.75c-0.066-0.018-0.127-0.035-0.19-0.051c-0.068-0.013-0.131-0.033-0.197-0.05
			c-0.064-0.014-0.142-0.036-0.208-0.048c-0.064-0.025-0.131-0.041-0.195-0.05c-0.067-0.017-0.12-0.033-0.188-0.05
			c-0.068-0.022-0.123-0.035-0.19-0.052c-0.064-0.018-0.118-0.038-0.185-0.055s-0.13-0.03-0.192-0.046
			c-0.063-0.018-0.117-0.035-0.181-0.056c-0.058-0.013-0.122-0.033-0.184-0.044c-0.062-0.021-0.131-0.04-0.191-0.051
			c-0.052-0.017-0.117-0.038-0.183-0.054c-0.062-0.015-0.105-0.034-0.16-0.048c-0.062-0.017-0.112-0.032-0.169-0.056
			c-0.061-0.021-0.108-0.031-0.169-0.044c-0.054-0.018-0.114-0.043-0.165-0.057c-0.053-0.012-0.117-0.028-0.165-0.044
			c-0.058-0.017-0.122-0.043-0.181-0.057c-0.045-0.017-0.108-0.036-0.159-0.046c-0.046-0.021-0.094-0.038-0.142-0.046
			c-0.056-0.021-0.1-0.042-0.153-0.055c-0.045-0.021-0.089-0.033-0.131-0.048c-0.053-0.024-0.106-0.036-0.156-0.059
			c-0.045-0.012-0.094-0.033-0.136-0.045c-0.048-0.017-0.097-0.035-0.147-0.052c-0.042-0.013-0.098-0.038-0.141-0.047
			c-0.041-0.014-0.089-0.038-0.131-0.052c-0.041-0.019-0.076-0.037-0.121-0.055c-0.032-0.021-0.068-0.032-0.106-0.046
			c-0.034-0.023-0.076-0.038-0.114-0.056c-0.046-0.017-0.081-0.029-0.117-0.046c-0.033-0.017-0.074-0.032-0.107-0.05
			c-0.038-0.014-0.087-0.034-0.114-0.051c-0.035-0.013-0.088-0.033-0.116-0.05c-0.031-0.011-0.05-0.029-0.086-0.047
			c-0.033-0.019-0.047-0.041-0.083-0.055c-0.033-0.019-0.049-0.033-0.077-0.046c-0.028-0.026-0.058-0.036-0.081-0.053
			c-0.055-0.04-0.117-0.07-0.163-0.105c-0.05-0.044-0.113-0.08-0.156-0.129c-0.03-0.021-0.035-0.051-0.059-0.071
			c-0.021-0.031-0.038-0.052-0.061-0.077c-0.018-0.029-0.037-0.046-0.055-0.079c-0.017-0.021-0.046-0.045-0.06-0.073
			c-0.009-0.021-0.025-0.029-0.031-0.037c-0.005-0.007-0.015-0.027-0.022-0.037c-0.01-0.023-0.022-0.044-0.033-0.084
			c-0.014-0.027-0.025-0.04-0.036-0.068c-0.011-0.026-0.023-0.057-0.033-0.076c-0.003-0.031-0.017-0.052-0.024-0.078
			c-0.01-0.025-0.014-0.045-0.026-0.081c-0.004-0.024-0.017-0.044-0.021-0.071c-0.014-0.028-0.02-0.045-0.029-0.084
			c-0.003-0.021-0.017-0.046-0.024-0.071c0-0.028-0.009-0.051-0.012-0.077c-0.005-0.033-0.014-0.054-0.021-0.083
			c-0.006-0.028-0.01-0.043-0.019-0.072c-0.007-0.026-0.016-0.052-0.028-0.076c-0.004-0.029-0.011-0.055-0.015-0.083
			c0-0.021-0.012-0.048-0.016-0.076c-0.004-0.026-0.008-0.046-0.013-0.077c-0.004-0.025-0.012-0.05-0.017-0.075
			c-0.004-0.029-0.012-0.055-0.018-0.075c-0.005-0.032-0.018-0.056-0.022-0.082c-0.005-0.033-0.008-0.05-0.012-0.081
			c-0.005-0.026-0.009-0.046-0.017-0.078c-0.005-0.021-0.013-0.049-0.016-0.072c-0.006-0.027-0.01-0.047-0.019-0.076
			c-0.004-0.021-0.01-0.047-0.02-0.076c-0.002-0.029-0.005-0.051-0.012-0.075c-0.003-0.03-0.003-0.048-0.006-0.081
			c-0.004-0.025-0.009-0.05-0.018-0.08c-0.005-0.021-0.009-0.046-0.014-0.075c-0.004-0.021-0.008-0.047-0.017-0.075
			c-0.004-0.025-0.009-0.04-0.012-0.081c-0.012-0.022-0.016-0.047-0.018-0.073c-0.006-0.025-0.012-0.055-0.012-0.072
			c-0.004-0.029-0.009-0.059-0.012-0.084c-0.005-0.027-0.009-0.05-0.014-0.075c-0.003-0.027-0.008-0.05-0.012-0.079
			c-0.005-0.025-0.008-0.044-0.013-0.077c-0.009-0.024-0.015-0.05-0.018-0.076c-0.005-0.029-0.005-0.045-0.016-0.075
			c-0.002-0.025-0.007-0.046-0.007-0.076c0-0.029-0.009-0.043-0.009-0.076c-0.004-0.029-0.008-0.044-0.017-0.077
			c0-0.029-0.007-0.051-0.011-0.079c-0.004-0.034-0.009-0.053-0.009-0.077c-0.005-0.027-0.009-0.051-0.017-0.076
			c0-0.028-0.005-0.049-0.009-0.075c-0.004-0.025-0.008-0.049-0.013-0.081c-0.006-0.024-0.009-0.05-0.015-0.078
			c0-0.03-0.004-0.051-0.01-0.076c-0.004-0.025-0.004-0.051-0.007-0.076c-0.004-0.03-0.009-0.05-0.014-0.077
			c0-0.024-0.003-0.043-0.007-0.073c-0.009-0.032-0.015-0.049-0.017-0.077c-0.005-0.03-0.012-0.052-0.012-0.081
			c-0.004-0.026-0.008-0.051-0.012-0.082c-0.005-0.021-0.005-0.041-0.009-0.077c-0.006-0.023-0.006-0.047-0.006-0.074
			c-0.003-0.024-0.008-0.051-0.011-0.079c-0.006-0.022-0.006-0.048-0.007-0.073c-0.006-0.027-0.01-0.053-0.015-0.077
			c0-0.027-0.004-0.047-0.013-0.077c-0.005-0.025-0.009-0.044-0.013-0.073c-0.004-0.032-0.009-0.053-0.014-0.076
			c0-0.033-0.003-0.049-0.007-0.076c-0.005-0.028-0.01-0.054-0.01-0.084c0-0.026-0.004-0.045-0.004-0.072
			c-0.005-0.029-0.01-0.049-0.015-0.076c-0.006-0.027-0.008-0.05-0.012-0.079c-0.009-0.024-0.014-0.05-0.017-0.076
			c0-0.025-0.005-0.051-0.009-0.076c-0.005-0.026-0.008-0.051-0.013-0.083c0-0.025-0.004-0.044-0.011-0.07
			c-0.003-0.027-0.007-0.053-0.013-0.075c0-0.025,0-0.053-0.004-0.081c-0.005-0.032-0.005-0.052-0.014-0.073
			c-0.004-0.03-0.009-0.053-0.009-0.083c-0.001-0.027-0.01-0.048-0.017-0.078c-0.005-0.025-0.005-0.047-0.008-0.072
			c-0.005-0.029-0.009-0.055-0.014-0.08c-0.003-0.029-0.003-0.051-0.012-0.081c-0.005-0.025-0.005-0.05-0.009-0.076
			c-0.004-0.03-0.008-0.05-0.008-0.076c0-0.028-0.005-0.053-0.009-0.082c-0.002-0.027-0.01-0.049-0.01-0.073
			c0-0.025-0.012-0.052-0.014-0.077c-0.005-0.025-0.01-0.05-0.015-0.082c0-0.021-0.004-0.044-0.007-0.071
			c-0.004-0.027-0.01-0.053-0.01-0.081c-0.004-0.029-0.007-0.053-0.011-0.081c0-0.025-0.007-0.047-0.012-0.077
			c-0.004-0.025-0.004-0.048-0.007-0.08c0-0.021,0-0.045-0.005-0.076c0-0.024-0.005-0.051-0.009-0.076
			c-0.003-0.032-0.003-0.047-0.008-0.077c-0.01-0.025-0.015-0.052-0.015-0.079c-0.003-0.026-0.008-0.05-0.012-0.077
			c0-0.026-0.007-0.047-0.009-0.07c-0.005-0.032-0.005-0.053-0.009-0.087c-0.005-0.025-0.008-0.047-0.008-0.076
			c-0.004-0.025-0.009-0.051-0.009-0.076c-0.004-0.029-0.008-0.043-0.008-0.077c0-0.028,0-0.05-0.008-0.076
			c0-0.024-0.005-0.054-0.009-0.074c0-0.027-0.01-0.048-0.014-0.077c-0.007-0.032-0.011-0.054-0.011-0.084
			c0-0.025-0.003-0.043-0.007-0.07c0-0.028-0.006-0.049-0.01-0.074c-0.003-0.033-0.003-0.051-0.007-0.08
			c-0.005-0.034-0.005-0.051-0.009-0.076c-0.006-0.028-0.008-0.058-0.015-0.08c-0.005-0.024-0.005-0.049-0.005-0.081
			c-0.004-0.032-0.008-0.049-0.008-0.079c-0.004-0.026-0.009-0.046-0.009-0.07c-0.006-0.029-0.011-0.056-0.011-0.075
			c0-0.031-0.006-0.053-0.011-0.084c0-0.021-0.005-0.045-0.005-0.072c-0.003-0.021-0.003-0.048-0.008-0.073
			c-0.004-0.031-0.01-0.052-0.01-0.081c-0.004-0.032-0.004-0.047-0.008-0.083c-0.005-0.046-0.014-0.097-0.021-0.15
			c-0.012-0.145-0.033-0.284-0.051-0.442c-0.013-0.114-0.029-0.232-0.037-0.351c-0.016-0.114-0.035-0.248-0.043-0.362
			c-0.012-0.117-0.033-0.243-0.042-0.355c-0.009-0.114-0.028-0.244-0.041-0.358c-0.018-0.118-0.029-0.243-0.037-0.355
			c-0.012-0.113-0.023-0.243-0.04-0.365c-0.014-0.116-0.03-0.238-0.038-0.353c-0.013-0.12-0.032-0.242-0.033-0.358
			c-0.021-0.122-0.033-0.241-0.045-0.359c-0.014-0.118-0.031-0.245-0.039-0.361c-0.017-0.114-0.033-0.237-0.042-0.355
			c-0.008-0.119-0.024-0.238-0.039-0.358c-0.012-0.123-0.03-0.235-0.038-0.364c-0.012-0.117-0.024-0.239-0.038-0.354
			c-0.017-0.122-0.024-0.24-0.038-0.359c-0.014-0.114-0.025-0.239-0.038-0.356c-0.013-0.123-0.029-0.245-0.034-0.359
			c-0.012-0.119-0.029-0.238-0.044-0.357c-0.016-0.121-0.025-0.24-0.035-0.357c-0.016-0.121-0.029-0.249-0.039-0.363
			c-0.013-0.118-0.029-0.243-0.038-0.365c-0.009-0.112-0.025-0.234-0.042-0.357c-0.019-0.116-0.023-0.239-0.039-0.359
			c-0.012-0.112-0.024-0.239-0.036-0.357c-0.016-0.123-0.032-0.242-0.034-0.363c-0.013-0.118-0.029-0.24-0.041-0.354
			c-0.013-0.12-0.024-0.241-0.038-0.36c-0.012-0.117-0.025-0.246-0.038-0.362c-0.012-0.115-0.022-0.238-0.034-0.359
			c-0.017-0.118-0.028-0.239-0.038-0.357c-0.014-0.119-0.026-0.238-0.037-0.357c-0.026-0.243-0.048-0.483-0.076-0.722
			c-0.153-1.469-0.3-2.97-0.454-4.486c-0.055-0.532-0.109-1.068-0.159-1.609c-0.034-0.358-0.067-0.715-0.105-1.071
			c-0.029-0.268-0.051-0.533-0.081-0.806c-0.032-0.268-0.051-0.535-0.079-0.804c-0.024-0.178-0.041-0.355-0.059-0.533
			c-0.019-0.181-0.034-0.357-0.048-0.537c-0.017-0.178-0.04-0.354-0.052-0.539c-0.005-0.088-0.017-0.174-0.028-0.263
			c-0.005-0.092-0.021-0.18-0.028-0.272c-0.009-0.095-0.018-0.18-0.026-0.271c-0.008-0.089-0.017-0.177-0.029-0.271
			c-0.01-0.091-0.017-0.178-0.029-0.267c-0.008-0.091-0.017-0.176-0.024-0.27c-0.011-0.092-0.019-0.177-0.032-0.267
			c-0.008-0.089-0.017-0.178-0.028-0.273c-0.012-0.092-0.02-0.182-0.028-0.271c-0.007-0.09-0.018-0.176-0.025-0.265
			c-0.004-0.09-0.023-0.182-0.033-0.271c-0.007-0.088-0.016-0.174-0.027-0.266c-0.009-0.09-0.017-0.178-0.029-0.271
			c-0.003-0.089-0.02-0.178-0.026-0.271c-0.01-0.094-0.017-0.183-0.032-0.273c-0.008-0.09-0.017-0.175-0.024-0.263
			c-0.009-0.09-0.022-0.183-0.031-0.273c-0.004-0.09-0.018-0.176-0.025-0.264c-0.009-0.091-0.017-0.181-0.03-0.274
			c-0.007-0.087-0.012-0.176-0.025-0.27c-0.011-0.09-0.022-0.176-0.032-0.265c-0.008-0.09-0.017-0.18-0.029-0.271
			c-0.009-0.085-0.017-0.178-0.025-0.269c-0.008-0.091-0.018-0.177-0.03-0.266c-0.007-0.088-0.018-0.183-0.027-0.271
			c-0.009-0.089-0.016-0.176-0.025-0.269c-0.002-0.093-0.016-0.18-0.031-0.267c-0.005-0.091-0.017-0.179-0.025-0.271
			c-0.012-0.093-0.017-0.177-0.029-0.268c-0.009-0.09-0.017-0.179-0.025-0.268c-0.012-0.088-0.022-0.181-0.03-0.27
			c-0.011-0.092-0.018-0.177-0.026-0.266c-0.008-0.092-0.017-0.186-0.028-0.274c-0.01-0.086-0.02-0.178-0.029-0.271
			c-0.008-0.09-0.021-0.182-0.025-0.264c-0.008-0.092-0.017-0.177-0.03-0.272c-0.004-0.089-0.017-0.181-0.025-0.266
			c-0.008-0.094-0.018-0.187-0.025-0.275c-0.011-0.089-0.019-0.178-0.032-0.268c-0.008-0.091-0.021-0.18-0.023-0.268
			c-0.01-0.09-0.019-0.181-0.032-0.271c-0.013-0.096-0.018-0.177-0.025-0.27c-0.009-0.094-0.024-0.184-0.033-0.274
			c-0.008-0.089-0.017-0.177-0.023-0.267c-0.008-0.088-0.021-0.175-0.032-0.269c-0.007-0.09-0.017-0.183-0.025-0.271
			c-0.008-0.09-0.017-0.178-0.028-0.268c-0.002-0.059-0.006-0.117-0.017-0.177h-45.691h-3.112h-45.768
			c-0.003,0.055-0.012,0.118-0.018,0.177c-0.006,0.09-0.015,0.178-0.027,0.268c-0.011,0.088-0.018,0.176-0.032,0.271
			c-0.013,0.094-0.017,0.181-0.025,0.269c-0.009,0.09-0.015,0.178-0.024,0.267c-0.008,0.091-0.024,0.178-0.033,0.274
			c-0.009,0.088-0.018,0.174-0.027,0.27c-0.009,0.091-0.017,0.178-0.024,0.271c-0.009,0.088-0.021,0.177-0.032,0.268
			c-0.009,0.09-0.017,0.179-0.025,0.268c-0.004,0.089-0.019,0.182-0.027,0.275c-0.01,0.085-0.018,0.177-0.032,0.266
			c-0.002,0.096-0.017,0.181-0.025,0.272c-0.009,0.082-0.018,0.174-0.031,0.264c-0.006,0.093-0.014,0.185-0.023,0.271
			c-0.005,0.089-0.018,0.183-0.028,0.274c-0.008,0.089-0.021,0.174-0.03,0.266c-0.011,0.089-0.017,0.182-0.026,0.27
			c-0.007,0.089-0.016,0.178-0.025,0.268c-0.009,0.091-0.022,0.175-0.028,0.268c-0.009,0.092-0.019,0.18-0.03,0.271
			c-0.006,0.087-0.014,0.178-0.024,0.267c-0.009,0.089-0.021,0.18-0.032,0.269c-0.007,0.089-0.017,0.184-0.028,0.271
			c-0.009,0.089-0.018,0.175-0.024,0.266c-0.016,0.091-0.025,0.179-0.032,0.269c-0.01,0.091-0.015,0.181-0.024,0.271
			c-0.009,0.089-0.017,0.175-0.026,0.265c-0.015,0.094-0.022,0.183-0.031,0.27c-0.009,0.094-0.018,0.184-0.027,0.274
			c-0.007,0.088-0.016,0.174-0.026,0.264c-0.01,0.091-0.021,0.184-0.031,0.273c-0.007,0.088-0.016,0.173-0.024,0.263
			c-0.009,0.091-0.021,0.18-0.03,0.273c-0.006,0.088-0.015,0.177-0.027,0.271c-0.009,0.093-0.017,0.177-0.03,0.271
			c-0.009,0.092-0.024,0.178-0.03,0.266c-0.011,0.09-0.016,0.176-0.027,0.271c-0.009,0.089-0.018,0.177-0.029,0.265
			c-0.008,0.089-0.02,0.179-0.027,0.271c-0.01,0.093-0.019,0.18-0.022,0.273c-0.012,0.09-0.026,0.175-0.029,0.267
			c-0.013,0.089-0.023,0.179-0.032,0.27c-0.002,0.089-0.017,0.176-0.023,0.267c-0.006,0.09-0.017,0.177-0.031,0.271
			c-0.015,0.094-0.018,0.177-0.031,0.271c-0.01,0.089-0.017,0.177-0.026,0.272c-0.012,0.089-0.018,0.175-0.03,0.263
			c-0.017,0.185-0.033,0.354-0.051,0.539c-0.018,0.179-0.036,0.355-0.054,0.537c-0.021,0.177-0.041,0.354-0.053,0.533
			c-0.025,0.27-0.049,0.538-0.083,0.804c-0.024,0.269-0.046,0.535-0.078,0.806c-0.032,0.356-0.066,0.713-0.105,1.071
			c-0.053,0.539-0.108,1.072-0.159,1.609c-0.152,1.517-0.304,3.018-0.453,4.486c-0.021,0.237-0.046,0.479-0.075,0.722
			c-0.012,0.119-0.025,0.238-0.038,0.357c-0.012,0.118-0.026,0.243-0.038,0.357c-0.013,0.126-0.025,0.244-0.039,0.359
			c-0.011,0.116-0.027,0.245-0.038,0.362c-0.015,0.119-0.029,0.24-0.04,0.36c-0.015,0.118-0.026,0.239-0.036,0.354
			c-0.015,0.121-0.028,0.244-0.039,0.363c-0.015,0.118-0.027,0.245-0.044,0.357c-0.012,0.124-0.025,0.243-0.038,0.359
			c-0.012,0.123-0.026,0.245-0.039,0.357c-0.011,0.122-0.027,0.247-0.034,0.365c-0.011,0.114-0.027,0.242-0.042,0.363
			c-0.015,0.117-0.024,0.236-0.038,0.357c-0.012,0.119-0.024,0.238-0.037,0.357c-0.012,0.118-0.031,0.24-0.038,0.359
			c-0.012,0.117-0.026,0.247-0.041,0.356c-0.014,0.119-0.027,0.243-0.038,0.359c-0.014,0.12-0.026,0.24-0.038,0.354
			c-0.013,0.129-0.03,0.241-0.039,0.364c-0.016,0.12-0.027,0.239-0.042,0.358c-0.012,0.118-0.031,0.241-0.037,0.355
			c-0.016,0.12-0.03,0.247-0.042,0.361c-0.019,0.123-0.031,0.24-0.038,0.359c-0.012,0.116-0.031,0.238-0.04,0.358
			c-0.016,0.118-0.027,0.238-0.038,0.353c-0.014,0.122-0.031,0.256-0.041,0.365c-0.013,0.116-0.031,0.241-0.037,0.355
			c-0.014,0.12-0.031,0.244-0.043,0.358c-0.017,0.117-0.03,0.247-0.036,0.355c-0.012,0.119-0.032,0.25-0.044,0.362
			c-0.013,0.12-0.025,0.232-0.038,0.351c-0.018,0.15-0.036,0.293-0.048,0.442c-0.006,0.054-0.015,0.099-0.02,0.15
			c0,0.032-0.002,0.051-0.005,0.083c-0.004,0.029-0.004,0.05-0.009,0.081c0,0.021-0.004,0.047-0.011,0.073
			c0,0.027-0.003,0.052-0.009,0.072c-0.003,0.031-0.009,0.053-0.012,0.084c0,0.02-0.003,0.046-0.009,0.075
			c-0.003,0.024-0.003,0.044-0.009,0.07c0,0.03-0.003,0.052-0.008,0.079c-0.004,0.021-0.004,0.052-0.009,0.081
			c0,0.018-0.006,0.049-0.011,0.08c-0.001,0.025-0.001,0.04-0.006,0.076c0,0.025-0.006,0.044-0.009,0.08
			c-0.003,0.025-0.009,0.046-0.009,0.074c-0.006,0.027-0.009,0.045-0.009,0.07c-0.004,0.03-0.004,0.056-0.009,0.084
			c-0.004,0.021-0.007,0.044-0.007,0.077c-0.005,0.021-0.005,0.05-0.009,0.074c-0.004,0.026-0.011,0.048-0.013,0.076
			c0,0.029-0.003,0.044-0.003,0.077c-0.006,0.025-0.012,0.051-0.015,0.076c0,0.029-0.003,0.049-0.007,0.076
			c-0.004,0.032-0.004,0.055-0.009,0.087c-0.003,0.023-0.007,0.044-0.007,0.07c-0.004,0.021-0.004,0.051-0.009,0.077
			c0,0.027-0.006,0.049-0.015,0.079c0,0.03-0.003,0.041-0.009,0.077c-0.003,0.031-0.006,0.052-0.006,0.076
			c-0.006,0.031-0.011,0.053-0.014,0.076c-0.004,0.032-0.004,0.055-0.009,0.08c-0.006,0.027-0.006,0.052-0.01,0.077
			c-0.002,0.028-0.002,0.048-0.006,0.081c0,0.024-0.006,0.05-0.009,0.081c0,0.027-0.003,0.051-0.009,0.071
			c-0.003,0.032-0.009,0.053-0.009,0.082c0,0.025-0.003,0.052-0.012,0.077c0,0.021-0.006,0.046-0.011,0.073
			c-0.003,0.025-0.007,0.05-0.007,0.082c0,0.029-0.006,0.046-0.009,0.076c-0.003,0.026-0.003,0.047-0.009,0.076
			c0,0.025-0.009,0.052-0.012,0.081c-0.005,0.025-0.005,0.051-0.009,0.08c0,0.021-0.004,0.047-0.007,0.072
			c-0.003,0.026-0.008,0.051-0.008,0.078c-0.004,0.03-0.009,0.053-0.009,0.083c-0.003,0.021-0.009,0.046-0.015,0.073
			c0,0.025-0.003,0.049-0.009,0.081c-0.003,0.026-0.008,0.048-0.012,0.075c-0.004,0.026-0.004,0.045-0.008,0.07
			c-0.004,0.032-0.004,0.053-0.01,0.083c-0.003,0.025-0.007,0.051-0.011,0.076c0,0.026-0.004,0.052-0.011,0.076
			c-0.002,0.029-0.006,0.051-0.006,0.079c-0.005,0.027-0.009,0.047-0.009,0.076c-0.006,0.027-0.011,0.046-0.013,0.072
			c-0.006,0.03-0.011,0.052-0.011,0.084c-0.004,0.027-0.008,0.043-0.012,0.076c-0.006,0.021-0.006,0.049-0.009,0.076
			c-0.003,0.029-0.009,0.048-0.012,0.073c0,0.03-0.006,0.05-0.009,0.077c-0.004,0.024-0.009,0.05-0.014,0.077
			c0,0.025-0.004,0.051-0.007,0.073c0,0.028-0.005,0.05-0.011,0.079c-0.008,0.027-0.008,0.051-0.011,0.074
			c-0.006,0.028-0.012,0.053-0.015,0.077c0,0.031-0.003,0.052-0.009,0.082c-0.005,0.029-0.01,0.051-0.01,0.081
			c-0.004,0.028-0.012,0.05-0.017,0.077c0,0.026-0.004,0.045-0.007,0.073c-0.006,0.027-0.006,0.052-0.015,0.077
			c-0.003,0.025-0.009,0.051-0.012,0.076c0,0.025-0.004,0.046-0.012,0.076c-0.004,0.028-0.004,0.054-0.009,0.078
			c-0.006,0.027-0.009,0.052-0.013,0.081c-0.005,0.026-0.011,0.043-0.017,0.075c0,0.025,0,0.049-0.009,0.076
			c-0.006,0.021-0.009,0.043-0.016,0.077c-0.005,0.024-0.01,0.045-0.015,0.079c-0.004,0.029-0.006,0.048-0.011,0.077
			c-0.004,0.033-0.007,0.047-0.013,0.076c-0.003,0.03-0.009,0.047-0.009,0.076c-0.003,0.03-0.009,0.046-0.012,0.075
			c-0.004,0.026-0.009,0.052-0.012,0.076c-0.004,0.033-0.009,0.052-0.013,0.077c-0.006,0.029-0.011,0.052-0.014,0.079
			c-0.005,0.025-0.009,0.048-0.015,0.075c0,0.025-0.006,0.05-0.011,0.084c-0.003,0.018-0.003,0.047-0.007,0.072
			c-0.004,0.026-0.008,0.047-0.014,0.073c-0.003,0.039-0.013,0.05-0.016,0.081c-0.003,0.028-0.012,0.054-0.016,0.075
			c-0.003,0.024-0.009,0.055-0.013,0.075c-0.003,0.03-0.008,0.051-0.012,0.08c-0.001,0.028-0.006,0.051-0.011,0.081
			c-0.004,0.024-0.011,0.046-0.018,0.075c-0.003,0.029-0.009,0.056-0.012,0.076c-0.009,0.029-0.01,0.049-0.017,0.076
			c-0.004,0.023-0.009,0.052-0.017,0.072c-0.004,0.032-0.009,0.052-0.012,0.078c-0.006,0.025-0.009,0.047-0.015,0.081
			c-0.006,0.021-0.009,0.048-0.018,0.082c-0.004,0.021-0.009,0.046-0.013,0.075c-0.003,0.025-0.015,0.047-0.02,0.075
			c-0.005,0.029-0.009,0.051-0.012,0.077c-0.006,0.028-0.015,0.055-0.02,0.076c-0.001,0.025-0.009,0.05-0.013,0.083
			c-0.009,0.024-0.013,0.05-0.021,0.076c-0.009,0.024-0.012,0.044-0.024,0.072c-0.008,0.029-0.012,0.048-0.02,0.083
			c-0.004,0.026-0.013,0.047-0.016,0.077c-0.003,0.025-0.012,0.05-0.016,0.071c-0.009,0.031-0.016,0.053-0.025,0.084
			c-0.01,0.031-0.02,0.047-0.028,0.071c-0.009,0.031-0.018,0.056-0.024,0.081c-0.009,0.024-0.016,0.047-0.025,0.078
			c-0.007,0.02-0.022,0.045-0.032,0.076c-0.015,0.028-0.026,0.041-0.036,0.068c-0.015,0.032-0.027,0.061-0.037,0.084
			c-0.005,0.005-0.011,0.031-0.02,0.037c-0.003,0.015-0.024,0.021-0.033,0.037c-0.006,0.021-0.04,0.052-0.061,0.073
			c-0.013,0.031-0.034,0.05-0.051,0.079c-0.024,0.025-0.042,0.046-0.059,0.077c-0.022,0.021-0.033,0.051-0.059,0.071
			c-0.041,0.049-0.099,0.085-0.163,0.129c-0.039,0.035-0.1,0.07-0.153,0.105c-0.03,0.017-0.051,0.031-0.078,0.053
			c-0.035,0.02-0.048,0.031-0.078,0.046c-0.033,0.02-0.055,0.036-0.088,0.055c-0.033,0.02-0.054,0.036-0.083,0.047
			c-0.033,0.025-0.082,0.04-0.119,0.05c-0.035,0.021-0.077,0.037-0.116,0.051c-0.033,0.018-0.068,0.037-0.105,0.05
			c-0.04,0.022-0.078,0.034-0.12,0.046c-0.04,0.021-0.073,0.036-0.114,0.056c-0.033,0.018-0.066,0.03-0.111,0.046
			c-0.04,0.021-0.077,0.036-0.114,0.055c-0.045,0.014-0.09,0.038-0.132,0.052c-0.035,0.017-0.097,0.037-0.14,0.047
			c-0.04,0.017-0.101,0.041-0.152,0.052c-0.039,0.017-0.093,0.033-0.132,0.045c-0.053,0.022-0.1,0.038-0.147,0.059
			c-0.051,0.019-0.091,0.033-0.141,0.048c-0.045,0.017-0.096,0.042-0.15,0.055c-0.049,0.012-0.093,0.033-0.147,0.046
			c-0.051,0.018-0.104,0.034-0.16,0.046c-0.048,0.018-0.114,0.04-0.171,0.057c-0.051,0.017-0.111,0.036-0.167,0.044
			c-0.053,0.02-0.109,0.039-0.168,0.057c-0.056,0.017-0.106,0.029-0.161,0.044c-0.063,0.023-0.119,0.039-0.181,0.056
			c-0.054,0.014-0.104,0.033-0.159,0.048c-0.054,0.016-0.117,0.037-0.177,0.054c-0.063,0.016-0.126,0.035-0.192,0.051
			c-0.061,0.017-0.12,0.035-0.187,0.044c-0.051,0.021-0.115,0.038-0.176,0.056c-0.06,0.023-0.121,0.033-0.189,0.046
			c-0.063,0.021-0.121,0.043-0.187,0.055c-0.063,0.017-0.12,0.03-0.188,0.052c-0.065,0.017-0.125,0.036-0.192,0.05
			c-0.063,0.009-0.126,0.029-0.188,0.05c-0.074,0.017-0.146,0.039-0.213,0.048c-0.062,0.02-0.122,0.041-0.189,0.05
			c-0.062,0.02-0.123,0.037-0.19,0.051c-0.952,0.252-1.946,0.501-2.974,0.75c-0.923,0.229-1.855,0.464-2.778,0.702
			c-0.893,0.228-1.76,0.46-2.583,0.696c-0.8,0.228-1.537,0.461-2.225,0.702c-0.665,0.228-1.275,0.455-1.789,0.697
			c-0.324,0.147-0.617,0.298-0.867,0.451c-0.137,0.084-0.255,0.173-0.36,0.261c-0.833,0.637-0.959,1.304,0,2.019
			c0.104,0.08,0.36,0.24,1.394,0.24C216.47,575.32,354.779,575.311,355.948,575.311z"/>
		<path fill="#FFFFFF" fill-opacity="0.2" d="M512.535,192.827H302.203l147.254,300.812l76.979-0.168V206.736
			C526.447,199.06,520.217,192.827,512.535,192.827z"/>
		<g>
			<path fill="#D0D3D4" stroke="#D3D3D3" stroke-miterlimit="10" d="M526.447,477.291v30.387c0,7.681-6.227,13.913-13.911,13.913
				H60.667c-7.677,0-13.911-6.221-13.911-13.913v-30.387H526.447z"/>
		</g>
	</g>
	<g>
		<circle fill="#E2E0D3" cx="95.229" cy="386.457" r="6.23"/>
		<circle fill="#E2E0D3" cx="143.773" cy="368.157" r="12.198"/>
		<path fill="#E2E0D3" d="M182.972,349.209c7.176,0,12.986-5.806,12.986-12.98c0-7.165-5.811-12.971-12.986-12.971
			c-7.16,0-12.979,5.806-12.979,12.971C169.996,343.399,175.81,349.209,182.972,349.209z"/>
		<path fill="#E2E0D3" d="M69.226,414.377c0-1.949-1.027-3.655-2.566-4.614v9.229C68.2,418.024,69.226,416.322,69.226,414.377z"/>
		<path fill="#E2E0D3" d="M418.297,238.104c10.396,0,18.822,8.422,18.822,18.819c0,10.392-8.427,18.813-18.822,18.813
			c-10.391,0-18.818-8.422-18.818-18.813C399.479,246.526,407.906,238.104,418.297,238.104z"/>
		<circle fill="#E2E0D3" cx="499.214" cy="283.061" r="11.486"/>
		<circle fill="#E2E0D3" cx="500.998" cy="375.279" r="5.942"/>
		<path fill="#E2E0D3" d="M219.812,250.621c3.422,0,6.197,2.775,6.197,6.203c0,3.423-2.775,6.203-6.197,6.203
			c-3.428,0-6.203-2.782-6.203-6.203C213.609,253.396,216.384,250.621,219.812,250.621z"/>
		<circle fill="#E2E0D3" cx="221.275" cy="315.584" r="7.667"/>
		<circle fill="#E2E0D3" cx="255.541" cy="270.687" r="7.663"/>
		<path fill="#E2E0D3" d="M302.339,200.122c1.266,0,2.291-1.031,2.291-2.296c0-1.271-1.025-2.298-2.291-2.298
			c-1.264,0-2.302,1.027-2.302,2.298C300.037,199.088,301.075,200.122,302.339,200.122z"/>
		<path fill="#E2E0D3" d="M428.016,309.807c0,3.187,2.592,5.784,5.779,5.784c3.189,0,5.776-2.589,5.776-5.784
			c0-3.183-2.587-5.768-5.776-5.768C430.61,304.039,428.016,306.624,428.016,309.807z"/>
		<path fill="#E2E0D3" d="M473.203,332.596c0,5.163,4.184,9.34,9.35,9.34c5.164,0,9.344-4.183,9.344-9.34
			c0-5.165-4.194-9.345-9.344-9.345C477.385,323.251,473.203,327.428,473.203,332.596z"/>
		<path fill="#E2E0D3" d="M461.133,303.798c4.6,0,8.309-3.713,8.309-8.311c0-4.585-3.709-8.3-8.309-8.3
			c-4.595,0-8.306,3.718-8.306,8.3C452.827,300.078,456.536,303.798,461.133,303.798z"/>
		<circle fill="#E2E0D3" cx="416.075" cy="162.968" r="22.939"/>
		<circle fill="#E2E0D3" cx="332.311" cy="171.852" r="13.924"/>
		<path fill="#E2E0D3" d="M321.371,131.385c1.647,0,2.983,1.338,2.983,2.985c0,1.649-1.335,2.985-2.983,2.985
			c-1.651,0-2.987-1.336-2.987-2.985C318.383,132.723,319.718,131.385,321.371,131.385z"/>
		<circle fill="#E2E0D3" cx="285.063" cy="167.439" r="4.474"/>
		<path fill="#E2E0D3" d="M486.036,386.453c-1.361,0-2.688,0.127-3.982,0.353c-3.111-6.362-9.647-10.759-17.201-10.759
			c-1.695,0-3.334,0.241-4.901,0.658c-4.573-12.73-14.625-22.831-27.314-27.501c0-0.008,0-0.017,0-0.032
			c0-8.769-6.816-15.939-15.441-16.52c-1.843-6.669-5.195-12.712-9.675-17.726c1.64-3.28,2.579-6.971,2.579-10.894
			c0-9.262-5.159-17.316-12.752-21.448c3.197-1.785,5.371-5.201,5.371-9.125c0-5.768-4.676-10.437-10.438-10.437
			c-0.52,0-1.029,0.045-1.523,0.114c1.498-2.504,2.386-5.433,2.386-8.565c0-4.609-1.868-8.794-4.882-11.82
			c3.504-4.013,5.634-9.257,5.634-15.01c0-2.481-0.406-4.88-1.132-7.123c2.609-2.867,4.686-6.219,6.106-9.907
			c1.324-3.481,2.075-7.253,2.075-11.2c0-10.667-5.341-20.084-13.481-25.738c0.078-0.612,0.136-1.225,0.136-1.857
			c0-7.725-6.267-13.993-13.99-13.993c-6.99,0-12.768,5.138-13.806,11.839c-8.269,2.72-15.019,8.797-18.638,16.623
			c-1.119-0.299-2.289-0.481-3.503-0.481c-7.349,0-13.303,5.956-13.303,13.302c0,0.796,0.085,1.578,0.22,2.334
			c-5.548,1.728-10.441,4.94-14.212,9.171c-4.938,5.549-7.966,12.832-8.014,20.836c-0.746,1.04-1.46,2.09-2.111,3.189
			c-0.371-7.953-6.926-14.296-14.963-14.296c-8.296,0-15.008,6.718-15.008,15.006c0,8.287,6.712,15.008,15.008,15.008
			c3.927,0,7.49-1.519,10.159-3.984c-0.836,3.38-1.284,6.908-1.284,10.551c0,3.355,0.394,6.629,1.113,9.774
			c-4.243,2.826-7.465,7.048-9.002,12.021c-2.033,1.487-3.922,3.163-5.634,5.004c-2.694-2.586-6.339-4.183-10.364-4.183
			c-8.284,0-14.995,6.712-14.995,14.987c0,8.277,6.708,14.991,14.995,14.991c0,0,0.01,0,0.015,0
			c-0.005,0.212-0.015,0.429-0.015,0.653c0,4.577,0.795,8.977,2.25,13.053c-0.499-0.031-1.002-0.074-1.508-0.074
			c-12.779,0-23.14,10.358-23.14,23.133c0,0.487,0.047,0.96,0.076,1.435c-5.218,2.143-9.48,5.496-12.183,9.622
			c-3.192-0.959-6.579-1.485-10.08-1.485c-13.54,0-25.237,7.687-30.939,18.879c-4.762-1.125-9.854-1.746-15.145-1.746
			c-26.523,0-48.024,15.342-48.024,34.264c0,0.356,0.023,0.71,0.038,1.059c-2.898-0.674-5.95-1.059-9.122-1.059
			c-18.495,0-33.486,12.322-33.486,27.523c0,1.043,0.089,2.075,0.23,3.09c-5.188,0.813-9.663,3.771-12.46,7.967
			c-2.552-2.643-6.125-4.305-10.094-4.305c-0.005,0-0.011,0-0.014,0v17.792h7.324h36.225H448.76h57.793v-50.938v-8.735
			C503.03,391.909,495.178,386.453,486.036,386.453z"/>
		<circle fill="#E2E0D3" cx="474.55" cy="353.849" r="11.906"/>
		<circle fill="#E2E0D3" cx="449.67" cy="332.295" r="3.978"/>
		<path fill="#E2E0D3" d="M389.276,125.409c1.649,0,2.986,1.338,2.986,2.988c0,1.651-1.337,2.988-2.986,2.988
			c-1.652,0-2.988-1.337-2.988-2.988C386.288,126.747,387.624,125.409,389.276,125.409z"/>
		<circle fill="#E2E0D3" cx="371.094" cy="90.673" r="15.311"/>
		<circle fill="#E2E0D3" cx="469.293" cy="167.41" r="4.443"/>
		<path fill="#E2E0D3" d="M439.444,220.083c3.021,0,5.573-1.969,6.47-4.686c0.22-0.665,0.35-1.384,0.35-2.132
			c0-3.758-3.052-6.812-6.814-6.812c-3.757,0-6.813,3.046-6.813,6.812c0,0.748,0.122,1.462,0.351,2.132
			C433.881,218.11,436.432,220.083,439.444,220.083z"/>
		<path fill="#E2E0D3" d="M465.071,250.008c3.764,0,6.815,3.051,6.815,6.817c0,3.763-3.05,6.813-6.815,6.813
			c-3.761,0-6.816-3.051-6.816-6.813C458.256,253.06,461.311,250.008,465.071,250.008z"/>
		<circle fill="#E2E0D3" cx="123.486" cy="398.235" r="3.02"/>
		<circle fill="#E2E0D3" cx="77.186" cy="407.412" r="3.507"/>
		<circle fill="#E2E0D3" cx="79.271" cy="378.137" r="2.085"/>
		<circle fill="#E2E0D3" cx="96.781" cy="356.206" r="4.683"/>
		<circle fill="#E2E0D3" cx="49.519" cy="302.125" r="6.629"/>
		<circle fill="#E2E0D3" cx="100.993" cy="261.141" r="4.22"/>
		<circle fill="#E2E0D3" cx="146.708" cy="278.665" r="2.932"/>
		<path fill="#E2E0D3" d="M190.091,365.756c1.096,0,1.987,0.896,1.987,1.99c0,1.1-0.891,1.992-1.987,1.992
			c-1.104,0-1.994-0.893-1.994-1.992C188.097,366.651,188.987,365.756,190.091,365.756z"/>
		<path fill="#E2E0D3" d="M258.423,309.812c1.599,0,2.891,1.292,2.891,2.891c0,1.593-1.292,2.884-2.891,2.884
			c-1.59,0-2.885-1.291-2.885-2.884C255.538,311.104,256.833,309.812,258.423,309.812z"/>
		<circle fill="#E2E0D3" cx="283.6" cy="268.36" r="3.005"/>
		<path fill="#E6E7E8" d="M433.795,459.414c0,0,0.368-6.067-1.864-10.795c-2.239-4.729-8.551-6.67-8.551-6.67v-5.315
			c-2.136-4.771-6.917-8.079-12.484-8.079c-0.824,0-1.635,0.077-2.425,0.212c-1.892-3.876-5.86-6.536-10.465-6.536
			c-1.032,0-2.024,0.141-2.976,0.394c-2.79-7.747-8.904-13.893-16.63-16.735c0-0.007,0-0.012,0-0.021
			c0-5.335-4.146-9.69-9.399-10.049c-1.121-4.057-3.164-7.736-5.883-10.788c0.996-1.997,1.57-4.237,1.57-6.625
			c0-5.64-3.14-10.541-7.763-13.058c1.949-1.082,3.27-3.165,3.27-5.549c0-3.507-2.84-6.356-6.351-6.356
			c-0.315,0-0.62,0.035-0.922,0.076c0.911-1.523,1.454-3.307,1.454-5.219c0-2.804-1.146-5.349-2.976-7.188
			c2.14-2.446,3.433-5.636,3.433-9.133c0-1.507-0.245-2.972-0.688-4.33c1.589-1.747,2.858-3.787,3.715-6.034
			c0.81-2.119,1.259-4.414,1.259-6.813c0-6.498-3.255-12.226-8.205-15.668c0.044-0.37,0.084-0.749,0.084-1.134
			c0-4.699-3.812-8.509-8.51-8.509c-4.253,0-7.767,3.121-8.399,7.204c-5.029,1.654-9.142,5.354-11.338,10.109
			c-0.68-0.182-1.392-0.287-2.131-0.287c-4.471,0-8.091,3.625-8.091,8.094c0,0.489,0.043,0.966,0.131,1.423
			c-3.377,1.056-6.346,3.01-8.644,5.577c-3.009,3.374-4.848,7.81-4.876,12.68c-0.448,0.628-0.888,1.275-1.288,1.939
			c-0.227-4.842-4.211-8.698-9.103-8.698c-5.045,0-9.132,4.083-9.132,9.132c0,5.041,4.086,9.133,9.132,9.133
			c2.39,0,4.558-0.933,6.186-2.433c-0.508,2.056-0.786,4.211-0.786,6.426c0,2.049,0.241,4.034,0.676,5.949
			c-2.579,1.719-4.536,4.29-5.477,7.314c-1.233,0.906-2.386,1.927-3.423,3.049c-1.645-1.572-3.861-2.553-6.31-2.553
			c-5.042,0-9.124,4.086-9.124,9.127c0,5.035,4.08,9.124,9.124,9.124c0,0,0.005,0,0.008,0c-0.006,0.125-0.008,0.261-0.008,0.389
			c0,2.794,0.488,5.465,1.377,7.95c-0.304-0.024-0.612-0.047-0.913-0.047c-7.785,0-14.083,6.302-14.083,14.078
			c0,0.288,0.027,0.583,0.044,0.869c-3.174,1.302-5.773,3.349-7.413,5.856c-1.943-0.583-4.002-0.904-6.137-0.904
			c-8.234,0-15.354,4.679-18.821,11.485c-2.898-0.684-5.994-1.06-9.22-1.06c-16.135,0-29.224,9.334-29.224,20.842
			c0,0.219,0.017,0.435,0.025,0.654c-1.765-0.415-3.623-0.654-5.553-0.654c-11.252,0-20.372,8.894-20.372,18.152h18.801h108.237
			h137.445v0.013H433.8v-0.009h-0.005V459.414z"/>
	</g>
	<g>
		<g>
			<path fill="#921D1D" stroke="#000000" stroke-miterlimit="10" d="M431.316,168.617c-0.029-2.799-0.169-7.493-1.573-12.237
				c-5.814-19.702-36.606-37.045-59.887-28.048c-9.568,3.702-15.281,10.862-17.625,13.882
				c-9.701,12.476-10.138,26.111-10.082,30.679c7.976-11.683,10.954-12.435,12.194-11.933c2.664,1.078,1.671,9.678,0.22,22.129
				c-1.237,10.641-1.851,15.961-3.795,21.155c-3.337,8.958-8.916,16.655-13.561,23.056c-4.679,6.448-7.077,8.704-7.729,13.381
				c-0.848,6.028,1.879,11.434,4.318,15.059c1.035-7.079,3.702-17.01,11.708-23.394c4.712-3.75,8.009-3.667,25.006-8.229
				c23.694-6.36,27.99-9.389,30.771-12.041c6.325-6.032,8.763-13.863,9.81-19.695c-0.431,7.074-5.368,15.03-2.255,22.105
				c0.803,1.818,1.501,3.99,1.501,3.99c1.06-12.49,3.57-14.496,11.402-23.969C423.438,192.475,431.439,180.728,431.316,168.617z"/>
			<path fill="#F36E21" d="M423.228,160.09c-0.017-2.019-0.112-5.399-1.125-8.823c-4.193-14.189-26.377-26.687-43.139-20.214
				c-6.903,2.668-11.023,7.835-12.719,10.008c-6.985,8.988-7.309,18.816-7.265,22.108c5.75-8.415,7.895-8.962,8.79-8.604
				c1.927,0.78,1.208,6.976,0.155,15.943c-0.892,7.664-1.333,11.505-2.728,15.241c-2.406,6.454-6.427,12-9.777,16.616
				c-3.366,4.646-5.102,6.27-5.566,9.639c-0.61,4.348,1.363,8.236,3.113,10.842c0.745-5.096,2.668-12.255,8.44-16.851
				c3.395-2.708,5.775-2.64,18.007-5.93c17.075-4.583,20.174-6.765,22.173-8.675c4.561-4.342,6.315-9.984,7.071-14.194
				c-0.317,5.101-3.871,10.835-1.622,15.93c0.579,1.303,1.074,2.875,1.074,2.875c0.765-9.01,2.574-10.441,8.228-17.272
				C417.544,177.283,423.31,168.815,423.228,160.09z"/>
			<path fill="#FCEE22" d="M385.486,133.578c1.246-0.688,3.362-1.807,5.799-2.37c10.13-2.331,25.156,7.203,26.696,19.964
				c0.629,5.259-1.195,9.635-1.972,11.451c-3.236,7.522-9.186,11.149-11.228,12.272c3.281-6.54,2.916-8.074,2.399-8.511
				c-1.115-0.935-4.695,1.683-9.881,5.466c-4.426,3.242-6.648,4.857-8.49,7.038c-3.193,3.76-5.27,8.214-7.019,11.923
				c-1.755,3.736-2.179,5.382-4.106,6.856c-2.475,1.895-5.523,2.024-7.707,1.834c2.894-2.243,6.672-5.949,7.605-11.161
				c0.544-3.071-0.272-4.538-2.29-13.355c-2.804-12.297-2.486-14.987-1.963-16.909c1.17-4.372,4.071-7.441,6.414-9.387
				c-3.035,1.972-5.401,6.208-9.271,6.58c-0.997,0.097-2.129,0.326-2.129,0.326c5.294-3.621,5.577-5.255,7.929-11.177
				C376.761,143.141,380.073,136.574,385.486,133.578z"/>
		</g>
		<g>
			<path fill="#B64F9D" d="M389.295,106.996c-3.777-1.466-7.177-2.031-9.984-2.197c-19.483-1.141-33.404,16.014-35.659,18.883
				c0.166-6.715,1.007-16.158,4.1-26.979c1.74-6.115,5.448-18.761,14.443-30.917c14.178-19.172,33.938-26.918,43.396-29.881
				c-3.983,15.13-7.786,30.823-11.328,47.062C392.484,91.081,390.833,99.09,389.295,106.996z"/>
			<path d="M345.865,96.167c1.609-5.64,5.37-18.85,14.752-31.542C373.89,46.68,392.082,38.09,405.003,34.04l3.386-1.056
				l-0.903,3.421c-4.095,15.522-7.902,31.33-11.318,46.985c-1.728,7.947-3.396,16.022-4.951,23.979l-0.439,2.286l-2.183-0.842
				c-3.074-1.187-6.236-1.88-9.401-2.062c-17.49-1.025-30.45,13.624-34.004,18.14l-3.635,4.614l0.144-5.873
				c0.068-2.588,0.221-5.162,0.466-7.732C342.792,109.208,344.031,102.604,345.865,96.167z M379.415,102.842
				c2.821,0.16,5.634,0.684,8.396,1.557c1.43-7.264,2.954-14.607,4.534-21.845c3.17-14.534,6.67-29.203,10.437-43.649
				c-12.023,4.264-27.492,12.461-39.019,28.045c-8.971,12.124-12.595,24.849-14.144,30.291c-1.938,6.811-4.472,17.994-5.013,25.065
				C350.795,114.145,364.134,101.957,379.415,102.842z"/>
		</g>
		<g>
			<g>
				<g>
					<path fill="#F2F2F2" d="M465.687-59.597c20.232-15.691,49.548-30.079,60.875-35.036c3.983,11.389,4.63,14.995,7.155,24.975
						c0,0,2.657,22.348,2.636,41.645c-0.008,10.059-1.554,21.226-4.008,33.026c-14.469,69.714-92.598,129.429-96.907,133.586
						c-23.253-12.073-49.322-25.358-49.322-25.358c2.04-7.12,14.314-105.112,58.395-155.09
						C444.508-41.841,457.583-53.303,465.687-59.597z"/>
					<path d="M443.655-42.546c5.468-5.986,21.007-19.282,24.109-21.615c17.477-13.159,36.803-23.938,57.44-32.03l1.808-0.71
						l0.722,1.805c2.343,5.872,4.364,12.034,6.005,18.323c0.222,0.811,5.177,20.164,4.25,48.393
						c-0.365,11.331-1.671,22.59-3.85,33.462c-13.604,67.583-89.373,126.234-97.938,134.66l-51.677-25.376
						C384.525,114.354,399.235,6.111,443.655-42.546z M386.768,111.898l48.745,25.542c9.062-8.935,81.492-67.078,94.786-133.139
						c2.146-10.656,3.418-21.7,3.782-32.819c0.902-27.666-4.067-47.081-4.118-47.277c-1.442-5.483-3.178-10.873-5.15-16.043
						c-19.625,7.875-38.022,18.233-54.695,30.794c-3.047,2.293-17.896,15.939-23.051,21.436
						C400.897,9.584,386.768,111.898,386.768,111.898z"/>
				</g>
				<path fill="#27AAE1" d="M437.615,141.611l-3.119,6.138c-0.38,0.745-1.327,1.024-2.119,0.621l-53.549-27.303
					c-0.792-0.401-1.12-1.335-0.737-2.082l3.111-6.131c0.396-0.746,1.333-1.027,2.122-0.625l53.553,27.306
					C437.671,139.933,438.001,140.864,437.615,141.611z"/>
				<path d="M435.607,147.329c-1.58,1.449-4.045,1.817-6.16,0.739l-48.651-24.813c-2.685-1.365-3.813-4.552-2.511-7.1l0.758-1.479
					c1.298-2.551,4.536-3.508,7.219-2.144l48.657,24.813c1.306,0.664,2.27,1.764,2.744,3.107c0.476,1.341,0.393,2.761-0.241,3.999
					l0,0l-0.746,1.48C436.393,146.466,436.032,146.933,435.607,147.329z M381.652,114.854c-0.256,0.23-0.469,0.514-0.632,0.831
					l-0.754,1.475c-0.771,1.508-0.099,3.399,1.48,4.211l48.654,24.815c1.604,0.805,3.519,0.235,4.29-1.272l0.751-1.48
					c0.372-0.732,0.427-1.573,0.146-2.372c-0.274-0.797-0.863-1.447-1.632-1.84l-48.656-24.814
					c-0.775-0.391-1.637-0.475-2.447-0.239C382.397,114.316,381.994,114.543,381.652,114.854z"/>
				<path fill="#B64F9D" d="M525.768-94.129c1.557,4.429,3.609,10.996,5.324,19.164c0,0,4.957,20.014,3.851,51.238
					c-5.009-0.536-9.084,0.372-19.608-1.652c-10.854-2.083-30.694-10-44.396-22.016c-3.461-3.017-6.346-6.096-8.736-8.979
					C485.62-74.51,508.07-86.376,525.768-94.129z"/>
			</g>
			<path fill-opacity="0.5" d="M497.801,40.435c16.467-23.695,25.572-47.18,37.728-90.746c4.362,2.257,0.74,28.057,0.74,28.057
				c0.792,26.424-22.486,73.446-22.486,73.446c-26.017,42.731-72.692,82.153-77.729,86.967l-12.739-6.333
				C423.316,131.822,481.333,64.131,497.801,40.435z"/>
		</g>
		<g>
			<path fill="#B64F9D" d="M435.211,131.687c3.394,2.205,5.862,4.62,7.641,6.8c12.354,15.107,6.643,36.434,5.641,39.949
				c5.344-4.073,12.482-10.302,19.428-19.151c3.927-4.996,11.991-15.42,16.553-29.835c7.205-22.739,1.868-43.289-1.288-52.678
				c-9.901,12.108-20.378,24.396-31.445,36.805C446.214,119.769,440.704,125.806,435.211,131.687z"/>
			<path fill-opacity="0.5" d="M435.249,131.613c3.395,2.202,5.852,4.62,7.637,6.798c12.362,15.11,6.642,36.436,5.64,39.948
				c5.337-4.076,12.483-10.307,19.434-19.148c3.924-4.998,11.987-15.428,16.55-29.842c7.197-22.735,1.87-43.289-1.283-52.677
				c-9.91,12.105-20.381,24.393-31.456,36.805C446.254,119.689,440.739,125.731,435.249,131.613z"/>
			<path d="M455.672,175.082c-1.939,1.703-3.933,3.338-5.987,4.915l-4.674,3.563l1.604-5.653c1.561-5.527,5.812-24.611-5.274-38.174
				c-2.01-2.455-4.425-4.601-7.194-6.399l-1.956-1.27l1.588-1.704c5.535-5.931,11.084-12.013,16.506-18.084
				c10.675-11.956,21.237-24.314,31.398-36.734l2.249-2.742l1.121,3.352c4.309,12.838,8.034,32.612,1.298,53.887
				c-4.762,15.047-13.25,25.847-16.881,30.459C465.331,165.757,460.713,170.64,455.672,175.082z M451.656,173.38
				c5.396-4.587,10.357-9.731,14.735-15.301c3.491-4.44,11.675-14.854,16.219-29.222c5.851-18.481,3.406-35.828-0.196-48.059
				c-9.491,11.525-19.308,22.973-29.212,34.074c-4.934,5.531-9.983,11.069-15.028,16.497c2.326,1.723,4.404,3.698,6.191,5.878
				C454.058,149.104,453.257,164.474,451.656,173.38z"/>
		</g>
		<g>
			<path fill="#C6489A" d="M433.086,58.165c-4.02,6.529-8.091,13.9-11.946,22.114c-12.121,25.812-17.094,49.371-19.229,66.426
				c6.545-7.269,13.448-15.601,20.412-25.071c13.957-18.97,24.233-37.188,31.739-52.621c0.493-1.544,1.492-5.27,0.658-9.374
				c-0.259-1.203-1.412-6.142-5.286-8.04C444.943,49.408,438.198,51.953,433.086,58.165z"/>
			<path d="M409.529,140.7c-2.116,2.505-4.281,4.975-6.466,7.395l-3.663,4.074l0.672-5.367c2.93-23.335,9.481-45.96,19.464-67.233
				c3.586-7.642,7.663-15.178,12.106-22.395l0.216-0.304c5.627-6.819,13.274-9.84,18.556-7.251c4.244,2.082,5.689,7.116,6.119,9.183
				c0.853,4.17,0.071,8.063-0.74,10.59l-0.15,0.37c-9.095,18.703-19.858,36.555-31.994,53.05
				C419.153,128.931,414.422,134.917,409.529,140.7z M404.514,141.065c5.74-6.606,11.276-13.522,16.483-20.608
				c11.9-16.181,22.458-33.672,31.382-52.004c0.603-1.957,1.151-4.866,0.513-7.962c-0.251-1.236-1.32-5.362-4.455-6.904
				c-3.828-1.874-9.499,0.426-13.889,5.602c-0.04,0.045-0.08,0.087-0.12,0.135c-4.29,6.988-8.23,14.282-11.699,21.674
				C413.784,100.067,407.665,120.246,404.514,141.065z"/>
		</g>
		<g>
			<g>
				<path fill="#27AAE1" d="M470.9-16.206c14.064,0,25.475,11.406,25.475,25.475c0,14.07-11.41,25.474-25.475,25.474
					c-14.072,0-25.477-11.404-25.477-25.474C445.427-4.8,456.829-16.206,470.9-16.206z"/>
				<path d="M489.784,28.477c-0.013,0.013-0.038,0.032-0.046,0.047c-5.146,5.031-11.941,7.76-19.138,7.681
					c-7.197-0.081-13.928-2.956-18.956-8.104c-5.03-5.148-7.758-11.942-7.688-19.136c0.079-7.171,2.942-13.887,8.058-18.914
					c0.016-0.011,0.032-0.032,0.044-0.049c5.149-5.032,11.944-7.759,19.134-7.682c7.195,0.081,13.932,2.956,18.959,8.1l-1.052,1.028
					l1.052-1.028C500.525,1.03,500.355,18.083,489.784,28.477z M454.065-7.853C449.511-3.372,446.964,2.611,446.89,9
					c-0.068,6.414,2.361,12.47,6.848,17.056c4.485,4.582,10.489,7.148,16.908,7.218c6.399,0.071,12.462-2.363,17.045-6.845
					c0.015-0.013,0.027-0.031,0.045-0.042c9.419-9.263,9.577-24.46,0.333-33.908c-4.487-4.585-10.487-7.149-16.905-7.215
					c-6.414-0.071-12.473,2.358-17.055,6.843C454.096-7.882,454.082-7.865,454.065-7.853z"/>
			</g>
			<g>
				<path fill="#AAE0F5" d="M485.267-4.782c0.194,0.196,0.386,0.4,0.572,0.608c7.179,7.961,6.843,20.237-0.892,27.806
					c-0.623,0.609-1.281,1.167-1.963,1.673c-2.8,2.14-6.041,3.425-9.388,3.878c-2.16,0.294-4.35,0.234-6.505-0.179
					c-3.277-0.628-6.446-2.093-9.142-4.373c-0.497-0.407-0.966-0.851-1.412-1.312c-7.767-7.936-7.622-20.659,0.313-28.418
					c1.312-1.275,2.742-2.343,4.265-3.188l0.019-0.004c3.028-1.7,6.397-2.537,9.775-2.534l0.029-0.003
					c2.272,0.003,4.537,0.399,6.704,1.162C480.439-8.675,483.053-7.049,485.267-4.782z"/>
				<path d="M485.668,24.289c-0.011,0.011-0.031,0.025-0.039,0.037c-0.653,0.639-1.343,1.229-2.062,1.758
					c-2.839,2.169-6.244,3.573-9.836,4.058c-2.271,0.31-4.564,0.251-6.821-0.183c-3.527-0.677-6.843-2.265-9.591-4.586
					c-0.486-0.394-0.984-0.861-1.482-1.367c-3.94-4.022-6.074-9.341-6.01-14.975c0.06-5.607,2.301-10.86,6.302-14.791
					c0.014-0.011,0.03-0.025,0.036-0.037c1.344-1.319,2.854-2.445,4.475-3.347l0.095-0.045c3.034-1.689,6.486-2.59,10.01-2.614l0,0
					l0.194-0.004c2.396,0,4.768,0.417,7.031,1.222c3.034,1.071,5.729,2.797,7.998,5.113l0,0c0.2,0.202,0.398,0.42,0.591,0.63
					C494.141,3.57,493.744,16.345,485.668,24.289z M457.492-4.36c-3.63,3.565-5.655,8.328-5.714,13.419
					c-0.048,5.105,1.878,9.931,5.456,13.583c0.441,0.456,0.896,0.876,1.334,1.234c2.494,2.114,5.509,3.552,8.71,4.168
					c2.044,0.391,4.133,0.443,6.19,0.163c3.258-0.438,6.343-1.714,8.925-3.685c0.658-0.485,1.283-1.016,1.86-1.591
					c0.014-0.015,0.03-0.026,0.044-0.037c7.328-7.205,7.681-18.797,0.806-26.417c-0.173-0.191-0.353-0.396-0.537-0.586
					c-2.066-2.101-4.512-3.663-7.26-4.643c-2.013-0.713-4.109-1.086-6.236-1.104l-0.169,0.002c-3.27-0.002-6.493,0.828-9.295,2.403
					l-0.097,0.051c-1.438,0.807-2.782,1.812-3.979,2.993C457.514-4.391,457.507-4.378,457.492-4.36z"/>
			</g>
		</g>
		<g opacity="0.5">
			<path fill="#A7A9AC" stroke="#58595B" stroke-miterlimit="10" d="M469.2-45.66c0.97,0,1.751,0.781,1.751,1.746
				c0,0.964-0.781,1.746-1.751,1.746c-0.962,0-1.745-0.782-1.745-1.746C467.455-44.879,468.238-45.66,469.2-45.66z"/>
			<circle fill="#A7A9AC" stroke="#58595B" stroke-miterlimit="10" cx="463.032" cy="-37.921" r="1.746"/>
			<path fill="#A7A9AC" stroke="#58595B" stroke-miterlimit="10" d="M456.212-32.411c0.968,0,1.755,0.785,1.755,1.751
				c0,0.966-0.787,1.748-1.755,1.748c-0.964,0-1.752-0.782-1.752-1.748C454.46-31.626,455.248-32.411,456.212-32.411z"/>
			<circle fill="#A7A9AC" stroke="#58595B" stroke-miterlimit="10" cx="449.977" cy="-23.08" r="1.75"/>
			<path fill="#A7A9AC" stroke="#58595B" stroke-miterlimit="10" d="M443.275-15.529c0.961,0,1.748,0.784,1.748,1.751
				s-0.787,1.75-1.748,1.75c-0.968,0-1.753-0.784-1.753-1.75S442.308-15.529,443.275-15.529z"/>
			<path fill="#A7A9AC" stroke="#58595B" stroke-miterlimit="10" d="M437.401-6.005c0.963,0,1.745,0.782,1.745,1.746
				s-0.782,1.745-1.745,1.745c-0.97,0-1.749-0.781-1.749-1.745S436.432-6.005,437.401-6.005z"/>
			<circle fill="#A7A9AC" stroke="#58595B" stroke-miterlimit="10" cx="432.503" cy="4.556" r="1.75"/>
			<path fill="#A7A9AC" stroke="#58595B" stroke-miterlimit="10" d="M428.459,11.517c0.969,0,1.755,0.785,1.755,1.751
				s-0.786,1.749-1.755,1.749c-0.963,0-1.748-0.782-1.748-1.749S427.496,11.517,428.459,11.517z"/>
			<circle fill="#A7A9AC" stroke="#58595B" stroke-miterlimit="10" cx="425.016" cy="21.212" r="1.75"/>
			<path fill="#A7A9AC" stroke="#58595B" stroke-miterlimit="10" d="M422.062,27.114c0.967,0,1.756,0.783,1.756,1.75
				c0,0.968-0.789,1.751-1.756,1.751c-0.963,0-1.748-0.783-1.748-1.751C420.313,27.897,421.099,27.114,422.062,27.114z"/>
			<circle fill="#A7A9AC" stroke="#58595B" stroke-miterlimit="10" cx="419.121" cy="36.617" r="1.75"/>
			<path fill="#A7A9AC" stroke="#58595B" stroke-miterlimit="10" d="M416.44,41.985c0.965,0,1.746,0.784,1.746,1.75
				c0,0.967-0.781,1.75-1.746,1.75c-0.971,0-1.752-0.784-1.752-1.75C414.69,42.769,415.471,41.985,416.44,41.985z"/>
			<path fill="#A7A9AC" stroke="#58595B" stroke-miterlimit="10" d="M413.949,49.642c0.967,0,1.753,0.782,1.753,1.749
				s-0.786,1.752-1.753,1.752c-0.963,0-1.748-0.784-1.748-1.752C412.199,50.426,412.986,49.642,413.949,49.642z"/>
			<path fill="#A7A9AC" stroke="#58595B" stroke-miterlimit="10" d="M411.422,57.646c0.967,0,1.755,0.786,1.755,1.75
				c0,0.967-0.788,1.75-1.755,1.75c-0.962,0-1.748-0.781-1.748-1.75C409.674,58.431,410.46,57.646,411.422,57.646z"/>
			<circle fill="#A7A9AC" stroke="#58595B" stroke-miterlimit="10" cx="409.17" cy="66.867" r="1.746"/>
			<path fill="#A7A9AC" stroke="#58595B" stroke-miterlimit="10" d="M407.228,72.765c0.972,0,1.75,0.785,1.75,1.75
				c0,0.967-0.778,1.752-1.75,1.752c-0.966,0-1.747-0.784-1.747-1.752C405.48,73.55,406.262,72.765,407.228,72.765z"/>
			<circle fill="#A7A9AC" stroke="#58595B" stroke-miterlimit="10" cx="405.469" cy="81.816" r="1.75"/>
			<circle fill="#A7A9AC" stroke="#58595B" stroke-miterlimit="10" cx="403.914" cy="88.701" r="1.746"/>
			<circle fill="#A7A9AC" stroke="#58595B" stroke-miterlimit="10" cx="402.438" cy="95.167" r="1.745"/>
			<path fill="#A7A9AC" stroke="#58595B" stroke-miterlimit="10" d="M401.128,99.833c0.971,0,1.755,0.782,1.755,1.749
				c0,0.965-0.784,1.752-1.755,1.752c-0.963,0-1.749-0.786-1.749-1.752C399.379,100.615,400.165,99.833,401.128,99.833z"/>
			<circle fill="#A7A9AC" stroke="#58595B" stroke-miterlimit="10" cx="399.978" cy="107.767" r="1.746"/>
			<circle fill="#A7A9AC" stroke="#58595B" stroke-miterlimit="10" cx="398.953" cy="113.617" r="1.747"/>
		</g>
	</g>
	<circle fill="#B0AFB0" cx="375.4" cy="358.496" r="6.973"/>
	<circle fill="#B0AFB0" cx="314.026" cy="309.231" r="5.192"/>
	<circle fill="#B0AFB0" cx="319.595" cy="380.743" r="3.665"/>
	<circle fill="#B0AFB0" cx="250.148" cy="424.413" r="5.388"/>
	<circle fill="#B0AFB0" cx="171.227" cy="381.071" r="6.621"/>
	<path fill="#B0AFB0" d="M259.891,387.696c3.525,0,6.382,2.858,6.382,6.381c0,3.528-2.856,6.384-6.382,6.384
		s-6.382-2.855-6.382-6.384C253.509,390.555,256.365,387.696,259.891,387.696z"/>
	<path fill="#B0AFB0" d="M449.841,438.322c4.088,0,7.403,3.311,7.403,7.398c0,4.094-3.313,7.41-7.403,7.41s-7.409-3.316-7.409-7.41
		C442.432,441.633,445.75,438.322,449.841,438.322z"/>
	<circle fill="#B0AFB0" cx="397.151" cy="308.411" r="4.613"/>
</g>
<g>
	<g>
		<polygon fill="#CCCCCC" points="437.767,510.567 386.485,568.056 752.265,568.056 694.728,510.52 		"/>
		<polygon fill="#757678" points="447.73,516.615 424.309,544.555 717.525,544.555 689.567,516.593 		"/>
		<polygon fill="#757678" points="535.621,548.439 528.911,560.84 612.923,560.84 604.912,548.427 		"/>
		<path fill="#757576" d="M439.484,511.804c-2.157,0-3.902-1.744-3.902-3.897V347.863c0-2.153,1.746-3.9,3.902-3.9h251.592
			c2.155,0,3.902,1.747,3.902,3.9v160.044c0,2.153-1.747,3.898-3.902,3.898H439.484V511.804z"/>
		<path fill="#CCCCCC" d="M441.59,510.479c-2.113,0-3.823-1.713-3.823-3.823V349.117c0-2.117,1.71-3.828,3.823-3.828h248.097
			c2.111,0,3.825,1.713,3.825,3.828v157.539c0,2.109-1.712,3.823-3.825,3.823L441.59,510.479L441.59,510.479z"/>
		<g>
			<rect x="445.303" y="354.636" fill="#F4F4F4" width="240.67" height="146.491"/>
			<g>
				<path fill="#C1C0C0" d="M685.976,368.488c0,3.397-2.758,6.155-6.155,6.155H451.459c-3.399,0-6.156-2.758-6.156-6.155v-13.853
					h240.67v13.853H685.976z"/>
				<g>
					<path fill="#FFFFFF" d="M672.805,364.64c0,1.869-1.33,3.385-2.976,3.385h-31.11c-1.644,0-2.977-1.516-2.977-3.385l0,0
						c0-1.869,1.333-3.386,2.977-3.386h31.11C671.475,361.254,672.805,362.771,672.805,364.64L672.805,364.64z"/>
					<g>
						<path fill="#FFFFFF" d="M624.796,364.64c0,1.869-1.333,3.385-2.974,3.385H461.446c-1.642,0-2.973-1.516-2.973-3.385l0,0
							c0-1.869,1.331-3.386,2.973-3.386h160.376C623.463,361.254,624.796,362.771,624.796,364.64L624.796,364.64z"/>
						<text transform="matrix(1 0 0 1 465.8525 365.7217)" font-family="'ArialMT'" font-size="3.6931">https://www.yourwebsite.com</text>
						<circle fill="#A7A9AC" cx="461.523" cy="364.639" r="2.434"/>
					</g>
				</g>
			</g>
		</g>
		<rect x="386.485" y="568.056" fill="#5E5F5F" width="365.779" height="8.444"/>
	</g>
</g>
<rect x="586.15" y="384.284" fill="#CDDCE0" width="84.942" height="61.552"/>
<rect x="463.955" y="384.284" fill="#CDDCE0" width="117.271" height="61.552"/>
<rect x="463.955" y="489.129" fill="#CDDCE0" width="207.138" height="11.998"/>
<rect x="463.955" y="451.225" fill="#CDDCE0" width="60.028" height="33.185"/>
<rect x="528.646" y="451.225" fill="#CDDCE0" width="77.758" height="33.185"/>
<rect x="611.068" y="451.225" fill="#CDDCE0" width="60.024" height="33.185"/>
<g id="XMLID_00000144316478652367102220000000322086842850912924_">
	<path id="XMLID_00000135667294177828522890000000064576532320504723_" fill="#1D1D1B" d="M167.585,469.789h-0.632v-19.144h0.632
		c0.371,0,0.67,0.304,0.67,0.673v17.794C168.255,469.483,167.955,469.789,167.585,469.789z"/>
	<g id="XMLID_00000057129564725359047850000016278187911561394055_">
		<path id="XMLID_00000040565551680069941780000002654874624494063490_" fill="#1D1D1B" d="M95.576,447.557h1.495v11.89h-1.495
			c-0.384,0-0.683-0.311-0.683-0.684v-10.521C94.893,447.865,95.199,447.557,95.576,447.557z"/>
		<path id="XMLID_00000152262131075700298280000009780773633238389924_" fill="#1D1D1B" d="M95.576,460.217h1.495v11.887h-1.495
			c-0.384,0-0.683-0.309-0.683-0.681v-10.526C94.893,460.522,95.199,460.217,95.576,460.217z"/>
	</g>
	<g id="XMLID_00000082326965929711845950000013487302620122326668_">
		<path id="XMLID_00000063632107475179336390000003080754130699099022_" fill="#1D1D1B" d="M156.223,571.417h-49.3
			c-5.604,0-10.147-4.538-10.147-10.147V436.58c0-5.601,4.545-10.147,10.147-10.147h49.295c5.603,0,10.148,4.547,10.148,10.147
			V561.27C166.372,566.884,161.824,571.417,156.223,571.417z"/>
	</g>
	<path id="XMLID_00000022558544751870213710000008956853229612852413_" fill="#3D3D3C" d="M140.856,430.638h-18.569
		c-0.156,0-0.283-0.129-0.283-0.291l0,0c0-0.159,0.126-0.291,0.283-0.291h18.569c0.159,0,0.283,0.132,0.283,0.291l0,0
		C141.139,430.509,141.015,430.638,140.856,430.638z"/>
	<path id="XMLID_00000150783298391917699740000002362966590664562365_" fill="#C7C6C6" d="M140.893,567.797h-18.634
		c-0.14,0-0.251-0.109-0.251-0.244l0,0c0-0.143,0.112-0.248,0.251-0.248h18.634c0.142,0,0.249,0.105,0.249,0.248l0,0
		C141.139,567.688,141.035,567.797,140.893,567.797z"/>
	<g>
		<path fill="none" d="M98.216,545.691c0.065,0.254,0.132,0.512,0.194,0.77c0.153-0.297,0.275-0.596,0.393-0.889v-1.312
			C98.643,544.757,98.445,545.238,98.216,545.691z"/>
		<path fill="#9ACFF0" d="M147.432,545.597c0.148,0.233,0.289,0.478,0.435,0.753c0.035-0.03,0.067-0.06,0.103-0.09
			c-0.103-0.359-0.215-0.703-0.334-1.04C147.567,545.348,147.496,545.474,147.432,545.597z"/>
		<path fill="#9ACFF0" d="M142.884,545.584c0.168-0.203,0.335-0.39,0.504-0.588c-0.074-0.104-0.145-0.202-0.221-0.305
			C143.081,544.989,142.994,545.283,142.884,545.584z"/>
		<path fill="#9ACFF0" d="M103.294,545.581c0.078-0.11,0.139-0.218,0.204-0.323c-0.065,0.074-0.133,0.141-0.197,0.216
			C103.301,545.505,103.301,545.543,103.294,545.581z"/>
		<path fill="#9ACFF0" d="M149.274,542.638c-0.213,0.304-0.421,0.607-0.623,0.916c0.304,0.459,0.545,0.983,0.736,1.592
			c0.011-0.008,0.019-0.016,0.029-0.023C149.287,544.266,149.209,543.423,149.274,542.638z"/>
		<path fill="#9ACFF0" d="M116.371,539.493c1.401,2.445,1.528,5.144,1.544,8.224c-0.032-2.286,0.816-3.405,1.88-4.704
			C118.793,541.545,117.574,540.399,116.371,539.493z"/>
		<path fill="#9ACFF0" d="M120.323,545.653c0.108-0.377,0.242-0.721,0.397-1.039c-0.064-0.129-0.134-0.258-0.201-0.389
			C120.477,544.693,120.41,545.168,120.323,545.653z"/>
		<path fill="#9ACFF0" d="M98.805,544.26v1.309c0.971-2.454,0.81-4.926,0.462-7.314c1.409,1.604,1.36,2.701,1.649,4.713
			c0.31-3.797,0.501-6.229-1.637-8.832c3.732,2.499,4.291,6.652,4.024,11.288c0.081-0.073,0.153-0.153,0.229-0.221
			c1.037-1.696,1.157-3.264,1.436-5.273c0.764,1.846,0.376,3.847,0.25,5.853c0.386-1.711,1.529-5.353,1.632-7.12
			c0.593,1.382,0.382,3.451,0.15,5.376c0.193-0.426,0.384-0.875,0.57-1.359c-0.021,1.067-0.338,2.063-0.763,2.988
			c-0.042,0.44-0.078,0.861-0.084,1.238c0.429-1.588,1.712-3.401,1.814-5.057c0.721,0.993,0.603,2.056,0.366,3.19
			c0.203-0.184,0.408-0.378,0.599-0.564c-0.248,0.581-0.519,1.094-0.812,1.567c-0.117,0.568-0.216,1.144-0.206,1.729
			c2.313-3.452,2.368-7.494,2.271-11.47c1.647,3.061,1.692,5.999,1.475,9.485c0.432-2.485,0.204-5.349-0.029-7.438
			c1.618,3.177,1.43,6.556,1.321,10.145c1.787-2.36,1.764-5.181,1.936-8.033c0.792,1.838,0.654,3.716,0.621,5.738
			c0.517-2.892,0.287-4.966-0.515-7.279c-1.175-0.793-2.271-1.369-3.044-1.788c4.386-0.778,6.776,1.692,9.847,5.263
			c0.235-4.206-1.88-7.054-3.277-9.607c2.345,2.191,3.845,5.328,5.041,8.722c0.307-0.147,0.627-0.28,0.965-0.414
			c-0.295,0.289-0.558,0.581-0.802,0.872c0.204,0.614,0.399,1.228,0.597,1.852c0.341-0.157,0.691-0.285,1.062-0.393
			c0.15-1.679,0.033-3.436,0.033-5.144c1.293,1.174,1.17,3.142,1.481,4.796c0.102-0.017,0.197-0.038,0.298-0.053
			c0.323-2.46-0.702-4.69-1.121-6.346c1.411,1.764,2.224,3.818,2.802,6.043c0.01,0,0.017-0.004,0.024-0.004
			c-0.008,0.004-0.015,0.012-0.021,0.02c0.475,1.846,0.789,3.81,1.137,5.835c-0.235-7.541,2.688-12.964,5.746-18.531
			c-1.296,5.536-3.059,9.659-3.284,16.244c0.598-3.638,2.471-6.533,3.777-9.373c-0.544,2.988-1.084,6.022-1.313,9.373
			c2.906-5.702,5.82-10.905,10.016-14.41c-2.602,3.944-4.515,8.196-5.42,13.494c0.464-0.885,0.973-1.656,1.514-2.354
			c-0.215-0.184-0.432-0.368-0.671-0.539c0.328,0.063,0.642,0.122,0.952,0.177c1.145-1.387,2.426-2.467,3.787-3.456
			c-1.251,1.144-1.705,2.435-2.064,3.813c0.468,0.113,0.911,0.254,1.334,0.439c0.427-0.386,0.856-0.74,1.295-1.08
			c-0.348-0.521-0.75-1.027-1.224-1.521c0.714,0.305,1.359,0.627,1.926,1.013c1.837-1.268,3.755-2.164,5.628-2.895
			c-0.867,0.648-1.976,1.893-3.009,3.3c0.525,0.694,1.017,1.295,1.397,1.986c0.307-0.145,0.601-0.264,0.896-0.366
			c0.235-2.31,0.845-4.399,2.45-6.329c-0.787,2.077-1.191,3.849-1.124,5.996c0.077-0.012,0.157-0.03,0.232-0.038
			c0.031-1.124,0.162-2.212,0.594-3.284c0.058,1.076,0.097,2.138,0.202,3.18c0.379-0.033,0.756-0.065,1.148-0.092
			c-0.388,0.226-0.74,0.441-1.078,0.661c0.205,1.519,0.608,2.97,1.537,4.282c-0.106-3.594-0.277-6.967,1.227-10.142
			c-0.216,2.089-0.428,4.951-0.032,7.434c-0.193-3.484-0.155-6.417,1.386-9.487c-0.075,3.278-0.051,6.605,1.169,9.614
			c0.288,0.253,0.572,0.513,0.865,0.769c-0.184-1.257-0.604-2.469-0.448-3.589c-0.01-0.141-0.031-0.275-0.031-0.415
			c0.024,0.067,0.05,0.117,0.075,0.184c0.079-0.344,0.215-0.68,0.436-1.015c0.089,1.533,1.112,3.19,1.582,4.69
			c0.029,0.039,0.069,0.075,0.104,0.113c-0.1-2.348-0.927-5.943-0.111-7.979c0.101,1.763,1.167,5.396,1.523,7.119
			c-0.113-2.013-0.478-4.013,0.234-5.856c0.161,1.23,0.265,2.299,0.544,3.33V436.605c0-4.477-3.645-8.125-8.122-8.125h-8.706
			c-0.079,2.494-2.118,4.499-4.631,4.499h-22.621c-2.513,0-4.554-1.998-4.633-4.499h-8.706c-4.476,0-8.121,3.646-8.121,8.125
			v106.964c0.172-0.548,0.303-1.136,0.387-1.778C99.232,542.647,99.064,543.479,98.805,544.26z"/>
		<path fill="#9ACFF0" d="M151.717,547.471c0-0.431,0.002-0.855,0.011-1.271c-0.026,0.036-0.053,0.071-0.082,0.104
			C151.695,546.655,151.721,547.04,151.717,547.471z"/>
		<path fill="#9ACFF0" d="M153.267,544.703c0.038,0.394,0.096,0.805,0.167,1.235c-0.007-0.456-0.018-0.908-0.025-1.354
			C153.358,544.63,153.308,544.661,153.267,544.703z"/>
		<path fill="#F9ED32" stroke="#FBB040" stroke-width="0.25" stroke-miterlimit="10" d="M163.564,545.538
			c-0.36-1.72-1.424-5.354-1.526-7.122c-0.814,2.046,0.011,5.631,0.109,7.984c-0.033-0.039-0.066-0.076-0.102-0.111
			c-0.47-1.502-1.501-3.163-1.582-4.692c-0.225,0.334-0.357,0.67-0.436,1.019c-0.023-0.066-0.049-0.126-0.076-0.188
			c0.005,0.144,0.022,0.279,0.034,0.423c-0.158,1.121,0.261,2.328,0.444,3.581c-0.292-0.256-0.574-0.512-0.861-0.771
			c-1.223-3.002-1.246-6.327-1.171-9.609c-1.541,3.061-1.579,5.997-1.386,9.486c-0.396-2.486-0.184-5.346,0.029-7.438
			c-1.501,3.173-1.33,6.552-1.224,10.143c-0.927-1.304-1.331-2.751-1.538-4.275c0.336-0.227,0.692-0.455,1.081-0.667
			c-0.393,0.026-0.776,0.051-1.148,0.093c-0.109-1.045-0.146-2.107-0.206-3.183c-0.432,1.079-0.563,2.163-0.594,3.284
			c-0.079,0.012-0.157,0.033-0.231,0.045c-0.071-2.149,0.335-3.923,1.123-6c-1.605,1.929-2.217,4.02-2.451,6.335
			c-0.293,0.098-0.592,0.217-0.892,0.361c-0.383-0.689-0.871-1.288-1.4-1.984c1.036-1.409,2.14-2.649,3.011-3.298
			c-1.874,0.737-3.796,1.634-5.627,2.898c-0.57-0.39-1.213-0.714-1.927-1.014c0.476,0.485,0.871,1,1.224,1.521
			c-0.437,0.333-0.872,0.691-1.295,1.078c-0.421-0.181-0.862-0.319-1.334-0.439c0.366-1.376,0.812-2.671,2.063-3.813
			c-1.356,0.997-2.642,2.068-3.786,3.459c-0.312-0.056-0.624-0.112-0.953-0.177c0.235,0.172,0.454,0.356,0.671,0.539
			c-0.543,0.701-1.048,1.472-1.515,2.353c0.907-5.303,2.82-9.554,5.418-13.497c-4.198,3.511-7.104,8.709-10.013,14.413
			c0.23-3.357,0.767-6.384,1.314-9.373c-1.307,2.835-3.181,5.743-3.778,9.373c0.23-6.582,1.991-10.709,3.282-16.24
			c-3.052,5.563-5.978,10.987-5.746,18.523c-0.35-2.021-0.661-3.986-1.135-5.832c0.006-0.004,0.013-0.015,0.02-0.019
			c-0.006,0-0.013,0-0.024,0c-0.579-2.229-1.392-4.279-2.8-6.044c0.415,1.655,1.441,3.89,1.12,6.342
			c-0.1,0.02-0.197,0.038-0.299,0.052c-0.304-1.653-0.182-3.618-1.48-4.795c0,1.71,0.114,3.462-0.034,5.14
			c-0.368,0.108-0.721,0.238-1.062,0.392c-0.188-0.615-0.392-1.232-0.597-1.842c0.249-0.3,0.51-0.593,0.805-0.876
			c-0.339,0.129-0.663,0.269-0.967,0.416c-1.191-3.394-2.692-6.53-5.04-8.725c1.404,2.552,3.516,5.405,3.278,9.603
			c-3.074-3.563-5.461-6.03-9.846-5.26c0.778,0.428,1.869,1.003,3.044,1.795c0.802,2.309,1.032,4.378,0.514,7.273
			c0.033-2.025,0.172-3.901-0.622-5.733c-0.17,2.853-0.149,5.674-1.938,8.033c0.112-3.594,0.301-6.967-1.318-10.145
			c0.237,2.088,0.459,4.952,0.03,7.438c0.212-3.483,0.17-6.421-1.478-9.484c0.097,3.975,0.038,8.013-2.269,11.469
			c-0.006-0.592,0.089-1.158,0.204-1.728c0.298-0.467,0.566-0.986,0.814-1.568c-0.193,0.191-0.395,0.38-0.6,0.568
			c0.238-1.134,0.354-2.202-0.369-3.189c-0.101,1.646-1.381,3.457-1.813,5.055c0.006-0.377,0.04-0.796,0.086-1.246
			c0.424-0.919,0.737-1.915,0.763-2.989c-0.191,0.48-0.381,0.936-0.569,1.361c0.234-1.926,0.437-3.997-0.152-5.368
			c-0.104,1.762-1.244,5.397-1.63,7.118c0.118-2.004,0.512-4.007-0.25-5.853c-0.28,2.01-0.399,3.583-1.438,5.271
			c-0.078,0.077-0.147,0.153-0.227,0.229c0.267-4.645-0.294-8.79-4.023-11.289c2.139,2.604,1.95,5.034,1.64,8.829
			c-0.289-2.013-0.24-3.108-1.649-4.71c0.346,2.38,0.508,4.863-0.463,7.313v15.703c0,4.475,3.644,8.124,8.122,8.124h49.294
			c4.479,0,8.121-3.646,8.121-8.124v-18.252c-0.276-1.028-0.381-2.102-0.544-3.328C163.09,541.526,163.454,543.529,163.564,545.538z
			 M103.294,545.581c0-0.035,0.007-0.081,0.007-0.11c0.064-0.074,0.132-0.143,0.197-0.218
			C103.433,545.363,103.372,545.471,103.294,545.581z M117.913,547.717c-0.016-3.08-0.142-5.78-1.545-8.224
			c1.202,0.906,2.419,2.053,3.427,3.52C118.733,544.309,117.884,545.431,117.913,547.717z M120.323,545.653
			c0.086-0.485,0.156-0.96,0.196-1.428c0.07,0.127,0.136,0.255,0.201,0.385C120.565,544.933,120.432,545.276,120.323,545.653z
			 M142.884,545.584c0.106-0.297,0.197-0.593,0.284-0.888c0.076,0.103,0.146,0.2,0.221,0.309
			C143.219,545.186,143.052,545.381,142.884,545.584z M147.862,546.356c-0.142-0.274-0.284-0.523-0.433-0.752
			c0.066-0.122,0.133-0.249,0.205-0.38c0.115,0.338,0.234,0.681,0.333,1.04C147.934,546.292,147.899,546.323,147.862,546.356z
			 M149.387,545.146c-0.191-0.608-0.439-1.133-0.736-1.592c0.204-0.31,0.415-0.612,0.623-0.916
			c-0.065,0.785,0.013,1.623,0.142,2.484C149.41,545.13,149.398,545.138,149.387,545.146z M151.717,547.471
			c0.002-0.431-0.024-0.813-0.071-1.167c0.029-0.035,0.056-0.071,0.082-0.104C151.721,546.615,151.717,547.04,151.717,547.471z
			 M153.267,544.703c0.041-0.039,0.091-0.077,0.145-0.115c0.009,0.445,0.02,0.895,0.026,1.351
			C153.358,545.513,153.305,545.101,153.267,544.703z"/>
		<path fill="#D0AA2B" d="M99.198,541.773c-0.085,0.64-0.216,1.225-0.389,1.774v0.708C99.064,543.479,99.232,542.647,99.198,541.773
			z"/>
	</g>
	<path fill="#E2E2E2" d="M156.172,428.464h-8.704c-0.08,2.494-2.121,4.499-4.633,4.499h-22.616c-2.513,0-4.558-2.002-4.632-4.499
		h-8.709c-4.476,0-8.12,3.649-8.12,8.125v9.812h65.535v-9.812C164.292,432.11,160.653,428.464,156.172,428.464z"/>
	<path fill="#E2E2E2" stroke="#939598" stroke-miterlimit="10" d="M161.697,515.669c0,4.629-3.92,8.367-8.76,8.367h-42.585
		c-4.838,0-8.76-3.736-8.76-8.367v-58.083c0-4.616,3.922-8.366,8.76-8.366h42.585c4.838,0,8.76,3.75,8.76,8.366V515.669z"/>
	<g>
		<path opacity="0.5" fill="#59595A" enable-background="new    " d="M158.87,438.805c0,1.619-1.313,2.925-2.929,2.925h-48.83
			c-1.617,0-2.925-1.306-2.925-2.925l0,0c0-1.627,1.313-2.926,2.925-2.926h48.83C157.558,435.879,158.87,437.19,158.87,438.805
			L158.87,438.805z"/>
		<g>
			<path d="M113.103,437.253l0.316,1.212c0.066,0.268,0.128,0.515,0.173,0.768h0.017c0.051-0.246,0.134-0.5,0.212-0.761l0.39-1.219
				h0.365l0.375,1.197c0.086,0.282,0.156,0.536,0.209,0.78h0.016c0.035-0.249,0.104-0.49,0.179-0.774l0.339-1.203h0.426l-0.77,2.392
				h-0.39l-0.37-1.144c-0.081-0.267-0.152-0.508-0.212-0.788h-0.01c-0.06,0.285-0.135,0.54-0.217,0.797l-0.381,1.135h-0.394
				l-0.72-2.392H113.103L113.103,437.253z"/>
			<path d="M116.734,437.253l0.322,1.212c0.063,0.268,0.127,0.515,0.169,0.768h0.016c0.058-0.246,0.136-0.5,0.215-0.761l0.388-1.219
				h0.366l0.37,1.197c0.091,0.282,0.162,0.536,0.213,0.78h0.018c0.038-0.249,0.104-0.49,0.182-0.774l0.337-1.203h0.434l-0.771,2.392
				H118.6l-0.368-1.144c-0.083-0.267-0.152-0.508-0.215-0.788h-0.004c-0.058,0.285-0.133,0.54-0.215,0.797l-0.386,1.135h-0.392
				l-0.721-2.392H116.734L116.734,437.253z"/>
			<path d="M120.36,437.253l0.318,1.212c0.062,0.268,0.131,0.515,0.178,0.768h0.015c0.051-0.246,0.129-0.5,0.208-0.761l0.393-1.219
				h0.364l0.37,1.197c0.089,0.282,0.156,0.536,0.215,0.78h0.014c0.038-0.249,0.104-0.49,0.184-0.774l0.336-1.203h0.429l-0.765,2.392
				h-0.397l-0.36-1.144c-0.083-0.267-0.154-0.508-0.217-0.788h-0.007c-0.059,0.285-0.134,0.54-0.216,0.797l-0.386,1.135h-0.392
				l-0.72-2.392H120.36L120.36,437.253z"/>
			<path d="M123.811,439.699c-0.171,0-0.29-0.135-0.29-0.314c0-0.175,0.125-0.309,0.299-0.309c0.172,0,0.287,0.123,0.287,0.309
				C124.108,439.563,123.993,439.699,123.811,439.699L123.811,439.699z"/>
			<path d="M124.807,437.253l0.519,1.408c0.06,0.156,0.117,0.351,0.16,0.493h0.009c0.047-0.143,0.093-0.325,0.152-0.496l0.477-1.405
				h0.46l-0.654,1.706c-0.31,0.822-0.521,1.239-0.813,1.496c-0.22,0.186-0.424,0.26-0.53,0.278l-0.111-0.362
				c0.111-0.031,0.252-0.099,0.381-0.216c0.121-0.092,0.262-0.261,0.367-0.48c0.019-0.044,0.031-0.073,0.031-0.104
				c0-0.027-0.006-0.061-0.031-0.109l-0.874-2.208H124.807L124.807,437.253z"/>
			<path d="M127.89,439.699c-0.642,0-1.146-0.473-1.146-1.226c0-0.806,0.528-1.271,1.184-1.271c0.683,0,1.146,0.499,1.146,1.22
				c0,0.885-0.617,1.272-1.182,1.272h-0.003V439.699L127.89,439.699z M127.904,439.371c0.417,0,0.729-0.392,0.729-0.931
				c0-0.409-0.204-0.915-0.718-0.915c-0.505,0-0.732,0.471-0.732,0.931c0,0.521,0.299,0.915,0.714,0.915H127.904L127.904,439.371z"
				/>
			<path d="M131.622,438.994c0,0.249,0.005,0.464,0.017,0.656h-0.385l-0.024-0.389h-0.011c-0.106,0.191-0.366,0.446-0.785,0.446
				c-0.379,0-0.823-0.213-0.823-1.047v-1.394h0.435v1.312c0,0.457,0.145,0.763,0.533,0.763c0.292,0,0.496-0.194,0.573-0.389
				c0.024-0.059,0.037-0.138,0.037-0.218v-1.459h0.433V438.994L131.622,438.994z"/>
			<path d="M132.347,438.004c0-0.285-0.004-0.523-0.022-0.744h0.381l0.018,0.467h0.019c0.103-0.32,0.372-0.523,0.661-0.523
				c0.043,0,0.079,0.006,0.117,0.015v0.406c-0.049-0.005-0.094-0.012-0.155-0.012c-0.303,0-0.521,0.23-0.581,0.554
				c-0.007,0.062-0.016,0.126-0.016,0.201v1.275h-0.435L132.347,438.004z"/>
			<path d="M133.895,439.207c0.134,0.082,0.36,0.168,0.574,0.168c0.311,0,0.459-0.152,0.459-0.357c0-0.208-0.122-0.318-0.437-0.441
				c-0.435-0.158-0.636-0.384-0.636-0.673c0-0.386,0.313-0.7,0.82-0.7c0.239,0,0.453,0.064,0.581,0.15l-0.106,0.31
				c-0.093-0.051-0.264-0.138-0.489-0.138c-0.254,0-0.394,0.149-0.394,0.322c0,0.204,0.14,0.296,0.452,0.409
				c0.406,0.157,0.625,0.359,0.625,0.718c0,0.427-0.328,0.729-0.889,0.729c-0.261,0-0.504-0.069-0.668-0.173L133.895,439.207z"/>
			<path d="M136.117,436.818c-0.164,0-0.271-0.128-0.271-0.282s0.113-0.27,0.282-0.27c0.164,0,0.275,0.118,0.275,0.27
				c0,0.154-0.106,0.282-0.279,0.282H136.117z M135.906,439.643v-2.392h0.435v2.392H135.906z"/>
			<path d="M137.585,436.687v0.573h0.622v0.329h-0.622v1.29c0,0.295,0.081,0.459,0.321,0.459c0.115,0,0.186-0.007,0.25-0.03
				l0.019,0.335c-0.083,0.028-0.218,0.057-0.387,0.057c-0.201,0-0.361-0.068-0.466-0.179c-0.114-0.138-0.168-0.347-0.168-0.626
				v-1.301h-0.369v-0.334h0.369v-0.437L137.585,436.687z"/>
			<path d="M138.913,438.527c0.009,0.589,0.384,0.824,0.813,0.824c0.31,0,0.504-0.055,0.662-0.116l0.079,0.304
				c-0.152,0.074-0.418,0.153-0.797,0.153c-0.732,0-1.17-0.485-1.17-1.199c0-0.726,0.427-1.29,1.121-1.29
				c0.779,0,0.98,0.681,0.98,1.122c0,0.089-0.002,0.157-0.013,0.21L138.913,438.527z M140.175,438.22
				c0.003-0.274-0.113-0.705-0.596-0.705c-0.443,0-0.631,0.402-0.662,0.705H140.175z"/>
			<path d="M141.257,439.699c-0.169,0-0.285-0.135-0.285-0.314c0-0.175,0.12-0.309,0.297-0.309c0.171,0,0.291,0.123,0.291,0.309
				c0,0.177-0.12,0.314-0.295,0.314H141.257z"/>
			<path d="M143.794,439.559c-0.112,0.055-0.36,0.141-0.684,0.141c-0.718,0-1.186-0.491-1.186-1.221
				c0-0.734,0.508-1.275,1.284-1.275c0.255,0,0.483,0.062,0.601,0.126l-0.098,0.329c-0.104-0.05-0.264-0.109-0.503-0.109
				c-0.543,0-0.84,0.404-0.84,0.909c0,0.548,0.355,0.884,0.827,0.884c0.246,0,0.408-0.053,0.528-0.104L143.794,439.559z"/>
			<path d="M145.248,439.699c-0.643,0-1.146-0.473-1.146-1.226c0-0.806,0.529-1.271,1.182-1.271c0.686,0,1.151,0.499,1.151,1.22
				c0,0.885-0.617,1.272-1.184,1.272h-0.002V439.699L145.248,439.699z M145.26,439.371c0.414,0,0.726-0.392,0.726-0.931
				c0-0.409-0.202-0.915-0.714-0.915c-0.508,0-0.734,0.471-0.734,0.931c0,0.521,0.297,0.915,0.711,0.915H145.26L145.26,439.371z"/>
			<path d="M146.979,437.903c0-0.251-0.006-0.453-0.019-0.65h0.382l0.017,0.384h0.017c0.135-0.228,0.357-0.434,0.756-0.434
				c0.318,0,0.564,0.193,0.669,0.476h0.008c0.074-0.139,0.172-0.239,0.267-0.311c0.144-0.111,0.297-0.168,0.525-0.168
				c0.317,0,0.787,0.203,0.787,1.032v1.406h-0.423v-1.355c0-0.458-0.173-0.734-0.519-0.734c-0.252,0-0.441,0.182-0.521,0.389
				c-0.02,0.063-0.035,0.146-0.035,0.223v1.479h-0.426v-1.428c0-0.386-0.167-0.659-0.496-0.659c-0.267,0-0.467,0.221-0.538,0.438
				c-0.027,0.066-0.035,0.141-0.035,0.208v1.444h-0.423v-1.738L146.979,437.903L146.979,437.903z"/>
		</g>
	</g>
	<path fill="#5E5F5F" d="M159.198,468.779c0,4.62-3.833,8.367-8.565,8.367h-37.887c-4.729,0-8.565-3.747-8.565-8.367v-8.574
		c0-4.62,3.832-8.365,8.565-8.365h37.887c4.731,0,8.565,3.741,8.565,8.365V468.779z"/>
</g>
</svg>
