<?xml version="1.0" encoding="utf-8"?>
<!-- Generator: Adobe Illustrator 16.0.0, SVG Export Plug-In . SVG Version: 6.00 Build 0)  -->
<!DOCTYPE svg PUBLIC "-//W3C//DTD SVG 1.1//EN" "http://www.w3.org/Graphics/SVG/1.1/DTD/svg11.dtd">
<svg version="1.1" xmlns="http://www.w3.org/2000/svg" xmlns:xlink="http://www.w3.org/1999/xlink" x="0px" y="0px" width="50px"
	 height="50px" viewBox="0 0 50 50" enable-background="new 0 0 50 50" xml:space="preserve">
<g id="Layer_2" display="none">
	
		<rect x="-4.818" y="-36.351" transform="matrix(0.7071 0.7071 -0.7071 0.7071 -1.430143e-004 3.452670e-004)" display="inline" fill-opacity="0.2" width="9.636" height="72.703"/>
	
		<rect x="45.182" y="13.648" transform="matrix(0.7071 0.7071 -0.7071 0.7071 50 -20.7107)" display="inline" fill-opacity="0.2" width="9.636" height="72.704"/>
	
		<rect x="32.682" y="1.146" transform="matrix(0.7071 0.7071 -0.7071 0.7071 37.4999 -15.5327)" display="inline" fill-opacity="0.2" width="9.636" height="72.708"/>
	
		<rect x="7.682" y="-23.854" transform="matrix(0.7071 0.7072 -0.7072 0.7071 12.501 -5.177)" display="inline" fill-opacity="0.2" width="9.635" height="72.708"/>
	
		<rect x="20.182" y="-11.354" transform="matrix(0.7071 0.7071 -0.7071 0.7071 24.9999 -10.355)" display="inline" fill-opacity="0.2" width="9.636" height="72.707"/>
</g>
<g id="Layer_3">
	
		<rect x="-8.909" y="-36.292" transform="matrix(0.7071 0.7072 -0.7072 0.7071 0.0421 0.0166)" fill-opacity="0.2" width="17.82" height="72.703"/>
	
		<rect x="16.108" y="-11.342" transform="matrix(0.7071 0.7071 -0.7071 0.7071 25.013 -10.3627)" fill-opacity="0.2" width="17.816" height="72.71"/>
	
		<rect x="41.091" y="13.648" transform="matrix(0.7071 0.7071 -0.7071 0.7071 49.9978 -20.71)" fill-opacity="0.2" width="17.818" height="72.706"/>
</g>
</svg>
